<?xml version="1.0" encoding="utf-8"?>
<!-- Generator: Adobe Illustrator 27.5.0, SVG Export Plug-In . SVG Version: 6.00 Build 0)  -->
<svg version="1.1" xmlns="http://www.w3.org/2000/svg" xmlns:xlink="http://www.w3.org/1999/xlink" x="0px" y="0px"
	 viewBox="0 0 500 500" style="enable-background:new 0 0 500 500;" xml:space="preserve">
<g id="Background_Simple">
	<g>
		<path style="fill:#FFE6DE;" d="M156.403,431.604c66.673-0.077,57.523-1.314,124.197-1.391c25.426-0.029,51.08-0.083,75.927-5.842
			c24.847-5.759,49.16-17.749,65.905-38.175c20.786-25.355,27.571-60.351,30.539-93.895c3.848-43.496,2.559-87.507-3.828-130.661
			c-3.126-21.125-8.017-43.194-21.81-58.704c-15.209-17.103-38.239-22.94-60.034-26.781
			c-73.161-12.893-148.211-12.346-221.553-0.686c-22.678,3.605-46.278,8.781-63.946,24.381
			c-20.515,18.114-29.487,47.38-32.223,75.651s-0.249,56.883-2.73,85.182c-2.767,31.566-2.326,70.513-0.568,102.162
			C48.037,394.494,63.414,442.336,156.403,431.604"/>
		<g>
			<path style="fill:#FFFFFF;" d="M281.355,67.059c0.457,19.548,0.498,39.083,1.602,58.612c0.405,7.168-0.04,15.784,3.446,22.325
				c2.898,5.438,8.447,8.04,14.334,8.909c8.627,1.275,17.725,0.064,26.381-0.325c10.281-0.461,20.562-0.923,30.843-1.384
				c4.975-0.223,9.95-0.438,14.924-0.67c3.691-0.172,7.636-0.234,11.104-1.682c5.767-2.408,8.252-7.875,9.027-13.777
				c1.205-9.173,0.144-18.933-0.468-28.132c-0.643-9.661-1.604-19.3-2.429-28.947c-0.105-1.233-2.04-1.249-1.941,0
				c1.126,14.184,2.61,28.33,3.069,42.559c0.231,7.16,1.366,16.284-2.93,22.527c-5.184,7.534-19.33,5.72-27.372,6.09
				c-17.18,0.791-34.394,1.975-51.588,2.347c-7.504,0.162-16.869-0.445-21.089-7.744c-3.98-6.883-3.369-16.283-3.839-23.982
				c-1.153-18.883-1.816-37.818-2.363-56.727C282.055,66.602,281.345,66.6,281.355,67.059L281.355,67.059z"/>
		</g>
		<g>
			<path style="fill:#FFFFFF;" d="M198.573,193.989c-8.851-0.95-34.011,2.931-34.537,6.899c-0.531,3.998,2.959,29.242,5.824,32.289
				c2.865,3.047,34.984-2.819,36.286-5.93C207.448,224.137,201.774,194.333,198.573,193.989z"/>
			<g>
				<path style="fill:#FFFFFF;" d="M198.573,192.489c-6.308-0.564-12.832,0.334-19.051,1.359
					c-4.575,0.754-12.303,1.373-15.829,4.917c-2.516,2.529-0.946,8.007-0.58,11.088c0.756,6.361,1.66,12.831,3.387,19.011
					c0.943,3.376,1.694,5.988,5.419,6.526c5.344,0.773,11.284-0.446,16.546-1.333c5.327-0.898,11.22-1.764,16.169-4.047
					c3.16-1.458,3.341-3.182,3.109-6.513c-0.453-6.488-1.82-13.04-3.395-19.336c-0.733-2.93-1.771-10.539-5.375-11.619
					c-1.853-0.556-2.645,2.339-0.798,2.893c1.73,0.519,3.037,8.537,3.399,10.012c1.203,4.907,2.193,9.9,2.835,14.913
					c0.385,3.011,1.554,5.871-1.502,7.134c-3.968,1.641-8.433,2.415-12.631,3.204c-4.85,0.912-9.8,1.696-14.743,1.815
					c-4.252,0.103-4.99-0.338-6.14-4.447c-1.362-4.867-2.155-9.93-2.854-14.929c-0.355-2.537-2.368-9.752-0.902-12.101
					c0.889-1.426,4.557-2.062,6.019-2.466c2.844-0.785,5.755-1.351,8.664-1.83c5.951-0.981,12.215-1.791,18.253-1.252
					C200.495,195.661,200.484,192.66,198.573,192.489z"/>
			</g>
			<path style="fill:#FFE6DE;" d="M198.252,204.642c-0.845,3.457-4.332,5.574-7.789,4.729c-3.457-0.845-5.574-4.332-4.729-7.789
				c0.845-3.457,4.332-5.574,7.789-4.729C196.98,197.699,199.098,201.186,198.252,204.642z"/>
			<path style="fill:#FFE6DE;" d="M206.146,227.248c0.551-1.318-0.149-7.423-1.382-14.05c-4.221-2.096-9.611-1.876-13.509,0.827
				c-1.473,1.022-2.978,2.422-4.758,2.202c-1.372-0.17-2.409-1.265-3.471-2.149c-2.906-2.417-6.833-3.564-10.583-3.09
				c-2.663,0.336-5.208,1.489-7.253,3.225c1.178,8.159,3.026,17.217,4.671,18.965C172.725,236.225,204.844,230.359,206.146,227.248z
				"/>
		</g>
		<g>
			<path style="fill:#FFFFFF;" d="M450.12,310.061c-25.612-0.182-51.224-0.2-76.837-0.214c-0.329,0-0.608,0.279-0.608,0.608
				c-0.008,14.592-0.016,29.183-0.024,43.775c0,0.344,0.29,0.629,0.632,0.632c11.609,0.103,23.218,0.184,34.827,0.23
				c7.803,0.031,15.607,0.059,23.41,0.017c2.285-0.012,7.851,0.992,9.912-0.321c0.7-0.446,0.052-1.566-0.653-1.117
				c-1.281,0.816-6.178,0.125-7.862,0.137c-5.643,0.04-11.287,0.03-16.93,0.017c-11.762-0.028-23.523-0.095-35.285-0.174
				c-1.816-0.012-5.715,0.733-7.4-0.053c1.145,0.534,0.612-0.245,0.612-1.833c-0.001-2.386-0.003-4.772-0.004-7.158
				c-0.003-6.215-0.007-12.431-0.01-18.646c-0.002-4.314-0.958-9.907-0.008-14.133c0.056-0.251-0.179-1.125-0.001-1.343
				c-0.388,0.474,4.389,0.645,3.332,0.576c1.952,0.127,3.951-0.002,5.911-0.003c7.224-0.004,14.448-0.017,21.672-0.029
				c15.105-0.023,30.209-0.073,45.314-0.18C450.627,310.845,450.628,310.064,450.12,310.061L450.12,310.061z"/>
		</g>
		<g>
			<path style="fill:#FFFFFF;" d="M454.722,276.206c-4.247,0.546-8.711,0.273-12.98,0.305c-8.799,0.066-17.598,0.059-26.397,0.045
				c-18.869-0.031-37.738-0.133-56.606-0.258c-4.333-0.029-8.667-0.058-13-0.092c-0.324-0.003-0.6,0.277-0.6,0.6
				c0,6.904,0,13.808,0,20.712c0,0.324,0.275,0.6,0.6,0.6c2.247,0,4.493,0,6.74,0c1.316,0,2.649,0.051,3.965,0
				c1.116-0.044,0.428-0.087,0.256-0.471c0.556,1.246,0,4.043,0,5.377c0,9.226,0,18.452,0,27.678c0,25.047,0,50.094,0,75.141
				c0,6.177,0,12.353,0,18.53c0,0.772,1.2,0.773,1.2,0c0-37.05,0-74.1,0-111.15c0-5.235,0-10.469,0-15.704
				c0-0.324-0.275-0.6-0.6-0.6c-2.247,0-4.493,0-6.74,0c-1.219,0-2.445-0.038-3.663,0c-1.567,0.049-0.413,0.738-0.558,0.088
				c-0.465-2.084,0-4.841,0-6.966c0-3.08,0-6.161,0-9.241c0-1.027,0.065-2.079,0-3.104c-0.062-0.978,0.332-0.693-0.568-0.29
				c0.357-0.16,1.339-0.031,1.713,0.013c3.104,0.366,6.451,0.047,9.574,0.068c24.418,0.164,48.838,0.314,73.256,0.272
				c7.995-0.014,16.454,0.669,24.409-0.352C455.477,277.308,455.487,276.107,454.722,276.206L454.722,276.206z"/>
		</g>
		<g>
			<path style="fill:#FFFFFF;" d="M80.525,102.375c33.317-0.064,66.679-1.703,99.978-2.753c16.599-0.523,33.198-1.037,49.799-1.513
				c3.677-0.105,7.958-0.747,11.575,0.11c6.614,1.568,7.374,7.044,8.011,12.782c0.904,8.139,1.607,16.304,2.223,24.469
				c2.563,33.975,2.994,68.117,1.301,102.146c-0.204,4.099-0.299,8.246-0.72,12.328c-0.284,2.753-0.819,5.701-2.741,7.862
				c-1.987,2.234-5.633,2.653-8.39,2.84c-8.357,0.566-16.851,0.262-25.227,0.373c-17.29,0.23-34.579,0.478-51.869,0.729
				c-38.902,0.565-77.804,1.155-116.706,1.741c-1.248,0.019-1.251,1.96,0,1.941c37.572-0.574,75.144-1.143,112.716-1.738
				c18.952-0.3,37.905-0.603,56.856-0.926c8.691-0.148,17.913,0.568,26.525-0.668c5.295-0.76,8.791-3.593,9.948-8.877
				c1.705-7.789,1.236-16.497,1.539-24.441c0.363-9.494,0.559-18.995,0.588-28.497c0.058-18.348-0.526-36.699-1.719-55.007
				c-0.618-9.482-1.406-18.953-2.351-28.408c-0.527-5.27-0.082-13.136-4.12-17.269c-4.253-4.352-12.063-3.002-17.439-2.846
				c-8.894,0.258-17.787,0.528-26.68,0.803c-41.01,1.27-82.127,1.932-123.096,4.182C80.118,101.76,80.112,102.376,80.525,102.375
				L80.525,102.375z"/>
		</g>
		<g>
			<path style="fill:#FFFFFF;" d="M136.091,146.067c4.48,27.908,6.078,56.283,4.604,84.51c-0.149,2.854-0.507,6.064-2.753,7.831
				c-1.424,1.119-3.314,1.398-5.111,1.626c-16.598,2.107-33.328,3.174-50.059,3.195c-3.417,0.004-7.204-0.18-9.642-2.575
				c-2.386-2.343-2.684-6.023-2.838-9.364c-0.941-20.454-1.882-40.908-2.823-61.361c-0.274-5.954-0.018-17.65-0.018-17.65
				c3.298-3.441,12.217-3.662,16.942-4.289c14.528-1.925,29.185-2.64,43.823-3.353C128.216,144.637,135.929,145.059,136.091,146.067
				z"/>
			<path style="fill:#FFE6DE;" d="M106.777,152.083c-1.79-1.217-4.539-0.46-5.594,1.43c-1.055,1.89-0.368,4.504,1.388,5.771
				c1.459,1.053,3.545,1.179,5.096,0.267c1.551-0.912,2.457-2.831,2.129-4.6c-0.328-1.77-1.894-3.249-3.685-3.429"/>
			<g>
				<path style="fill:#FFE6DE;" d="M79.809,176.23c7.984-0.057,16.122-1.493,24.056-2.356c8.019-0.872,16.037-1.745,24.056-2.617
					c0.701-0.076,0.708-1.184,0-1.106c-8.339,0.918-16.679,1.835-25.018,2.753c-7.664,0.843-15.62,1.197-23.164,2.811
					C79.447,175.777,79.516,176.232,79.809,176.23L79.809,176.23z"/>
			</g>
			<g>
				<path style="fill:#FFE6DE;" d="M79.232,183.395c16.419-1.13,32.855-2.024,49.265-3.288c0.811-0.063,0.823-1.328,0-1.275
					c-16.434,1.059-32.842,2.489-49.265,3.682C78.67,182.555,78.665,183.434,79.232,183.395L79.232,183.395z"/>
			</g>
			<g>
				<path style="fill:#FFE6DE;" d="M78.071,190.784c11.388-0.608,22.799-1.479,34.156-2.508c0.622-0.056,0.638-1.024,0-0.984
					c-11.387,0.707-22.803,1.579-34.156,2.705C77.576,190.046,77.558,190.812,78.071,190.784L78.071,190.784z"/>
			</g>
			<g>
				<path style="fill:#FFE6DE;" d="M116.169,188.134c5.272-0.257,10.541-0.611,15.802-1.034c0.751-0.06,0.763-1.232,0-1.181
					c-5.272,0.35-10.543,0.77-15.802,1.287C115.586,187.263,115.564,188.163,116.169,188.134L116.169,188.134z"/>
			</g>
			<g>
				<path style="fill:#FFE6DE;" d="M78.307,199.126c17.971-0.557,35.952-1.37,53.907-2.303c0.743-0.038,0.751-1.191,0-1.163
					c-17.97,0.693-35.956,1.507-53.907,2.574C77.739,198.269,77.73,199.144,78.307,199.126L78.307,199.126z"/>
			</g>
			<g>
				<path style="fill:#FFE6DE;" d="M79.224,207.242c17.123-0.973,34.256-2.055,51.356-3.382c0.738-0.057,0.752-1.206,0-1.162
					c-17.127,0.999-34.253,2.245-51.356,3.598C78.623,206.343,78.611,207.277,79.224,207.242L79.224,207.242z"/>
			</g>
			<g>
				<path style="fill:#FFE6DE;" d="M81.569,216.016c16.381-1.894,32.822-3.568,49.151-5.875c0.585-0.083,0.454-1.1-0.141-1.04
					c-16.366,1.646-32.691,3.937-49.01,5.996C80.992,215.17,80.979,216.084,81.569,216.016L81.569,216.016z"/>
			</g>
			<g>
				<path style="fill:#FFE6DE;" d="M80.839,222.392c16.45,0.307,33.132-1.459,49.551-2.423c0.851-0.05,0.858-1.38,0-1.331
					c-16.439,0.928-33.225,1.1-49.551,3.286C80.55,221.962,80.527,222.386,80.839,222.392L80.839,222.392z"/>
			</g>
			<g>
				<path style="fill:#FFE6DE;" d="M83.235,230.102c16.286,0.261,32.921-0.388,49.074-2.576c0.339-0.046,0.26-0.62-0.081-0.599
					c-16.34,1.037-32.627,2.252-48.993,2.949C83.091,229.883,83.089,230.099,83.235,230.102L83.235,230.102z"/>
			</g>
		</g>
		<g>
			<path style="fill:#FFFFFF;" d="M199.529,118.656c-11.886,1.588-43.566,14.714-42.986,20.076
				c0.585,5.401,13.226,37.317,17.95,40.388c4.724,3.07,44.875-14.88,45.584-19.367
				C220.786,155.264,203.827,118.081,199.529,118.656z"/>
			<g>
				<path style="fill:#FFFFFF;" d="M199.13,117.209c-8.378,1.235-16.605,4.517-24.347,7.826
					c-5.775,2.468-15.198,5.602-18.854,11.195c-2.56,3.916,1.499,11.017,2.909,14.765c3.014,8.009,6.269,16.124,10.488,23.585
					c2.391,4.228,4.17,6.936,9.285,6.157c6.873-1.046,13.621-4.029,19.962-6.75c6.765-2.903,14.054-5.96,19.961-10.44
					c3.688-2.797,3.236-5.095,1.868-9.276c-2.723-8.321-6.571-16.426-10.654-24.152c-1.689-3.196-5.559-12.933-10.219-12.962
					c-1.931-0.012-1.933,2.988,0,3c2.579,0.016,7.063,10.385,8.091,12.36c3.18,6.11,6.09,12.403,8.551,18.839
					c1.241,3.246,3.82,7.209,0.849,9.601c-4.652,3.747-10.693,6.273-16.083,8.726c-6.149,2.799-12.485,5.436-19.011,7.232
					c-1.637,0.45-4.493,1.593-6.2,1.04c-1.592-0.516-2.606-2.815-3.399-4.169c-3.806-6.496-6.707-13.609-9.448-20.602
					c-1.087-2.773-2.136-5.564-3.088-8.386c-0.49-1.454-2.139-4.712-1.727-6.317c0.553-2.159,4.635-4.044,6.348-5.044
					c4.038-2.356,8.324-4.32,12.632-6.124c7.29-3.052,15.025-6.05,22.885-7.209C201.831,119.821,201.022,116.93,199.13,117.209z"/>
			</g>
			<path style="fill:#FFE6DE;" d="M202.517,132.698c0,4.793-3.886,8.679-8.679,8.679c-4.793,0-8.679-3.886-8.679-8.679
				c0-4.793,3.886-8.679,8.679-8.679C198.632,124.019,202.517,127.904,202.517,132.698z"/>
			<path style="fill:#FFE6DE;" d="M220.077,159.752c0.3-1.9-2.569-9.665-6.302-17.942c-6.194-1.392-13.177,0.619-17.412,5.404
				c-1.601,1.809-3.122,4.122-5.521,4.403c-1.85,0.217-3.557-0.885-5.23-1.702c-4.576-2.233-10.081-2.477-14.837-0.658
				c-3.378,1.292-6.338,3.614-8.459,6.54c4.151,10.299,9.467,21.56,12.178,23.322C179.217,182.189,219.369,164.239,220.077,159.752z
				"/>
		</g>
		<g>
			<path style="fill:#FFFFFF;" d="M350.15,297.845c34.255,1.325,68.723,0.265,103.002,0.291c0.627,0.001,0.628-0.975,0-0.975
				c-34.28,0.026-68.747-1.034-103.002,0.291C349.896,297.461,349.896,297.836,350.15,297.845L350.15,297.845z"/>
		</g>
		<path style="fill:#FFFFFF;" d="M422.934,276.806h-27.225v-89.136c7.861-2.271,17.199-1.78,27.225,0V276.806z"/>
		<path style="fill:#FFFFFF;" d="M430.627,276.806c-4.689-32.907-6.48-67.32-7.693-100.537c0,0,4.786-2.557,7.357,0
			c2.57,2.556,10.648,100.537,10.648,100.537H430.627z"/>
		<path style="fill:#FFFFFF;" d="M395.709,193.933c-0.305-1.589-7.382-0.801-10.057,0c-2.675,0.801-16.05,82.873-16.05,82.873
			l13.054,0.211C382.655,277.016,396.069,195.807,395.709,193.933z"/>
		<g>
			<path style="fill:#FFE6DE;" d="M405.62,203.706c-1.493,20.537-0.423,41.317,1.306,61.811c0.032,0.379,0.318,0.784,0.75,0.75
				c1.889-0.148,3.778-0.289,5.667-0.433c0.43-0.033,0.795-0.338,0.796-0.796c0.039-20.442-0.189-40.889-0.305-61.331
				c-0.003-0.454-0.382-0.839-0.839-0.839c-2.402,0-4.805-0.022-7.206,0.027c-1.043,0.021-1.045,1.6,0,1.622
				c1.581,0.033,5.321-0.75,6.578,0.029c0.685,0.425-0.129,13.536-0.116,15.978c0.069,12.2,0.152,24.4,0.231,36.6
				c0.015,2.255,1.061,7.06-1.973,7.382c-3.273,0.347-2.535-4.495-2.693-6.696c-0.417-5.785-0.733-11.576-0.982-17.371
				c-0.525-12.242-0.552-24.489-0.877-36.733C405.951,203.487,405.635,203.491,405.62,203.706z"/>
		</g>
		<g>
			<path style="fill:#FFE6DE;" d="M425.195,175.502c-0.498,17.261,1.346,34.565,2.738,51.757
				c1.343,16.589,1.918,33.576,4.251,50.048c0.123,0.87,1.516,0.642,1.51-0.204c-0.123-16.848-2.953-34.002-4.543-50.771
				c-1.604-16.924-2.428-33.892-3.816-50.829C425.328,175.413,425.198,175.41,425.195,175.502L425.195,175.502z"/>
		</g>
		<g>
			<path style="fill:#FFE6DE;" d="M428.51,175.502c-0.49,17.175,1.66,34.378,3.349,51.449c1.634,16.512,2.492,33.342,4.83,49.756
				c0.124,0.869,1.517,0.643,1.51-0.204c-0.132-16.749-3.26-33.841-5.138-50.471c-1.899-16.815-3.013-33.672-4.411-50.529
				C428.643,175.413,428.512,175.41,428.51,175.502L428.51,175.502z"/>
		</g>
		<g>
			<path style="fill:#FFFFFF;" d="M112.127,431.99c-4.725-0.407-9.125-1.21-11.975-2.166l-0.066-113.945
				c0-2.423,9.405-4.123,12.737,0L112.127,431.99z"/>
			<path style="fill:#FFFFFF;" d="M228.988,349.958l-2.003-36.575c-6.499-2.842-34.108-1.826-41.189-1.397
				c-25.349,1.536-48.883,7.798-72.973,15.835v58.134c6.808,3.687,18.084,2.963,25.694,1.544
				c24.422-4.554,48.844-9.109,73.265-13.663c6.905-1.288,14.846-3.36,17.662-9.795
				C231.365,359.653,230.197,354.594,228.988,349.958z"/>
			<g>
				<path style="fill:#FFE6DE;" d="M112.657,388.239c0.437-20.876,0.991-41.751,1.446-62.624c0.016-0.744-1.085-0.725-1.144,0
					c-1.665,20.667-1.935,41.916-1.005,62.624C111.975,388.69,112.648,388.694,112.657,388.239L112.657,388.239z"/>
			</g>
			<g>
				<path style="fill:#FFE6DE;" d="M99.636,315.032c4.217,3.219,9.306,3.785,14.13,1.513c0.887-0.418,0.109-1.787-0.776-1.328
					c-4.12,2.139-9.211,1.975-13.156-0.525C99.614,314.552,99.44,314.883,99.636,315.032L99.636,315.032z"/>
			</g>
			<path style="fill:#FFFFFF;" d="M237.468,430.894h-12.736V306.441c0-2.423,9.405-4.123,12.736,0V430.894z"/>
			<g>
				<path style="fill:#FFE6DE;" d="M224.281,305.594c4.217,3.22,9.306,3.786,14.13,1.513c0.887-0.418,0.109-1.787-0.776-1.328
					c-4.12,2.139-9.21,1.975-13.156-0.525C224.26,305.114,224.085,305.445,224.281,305.594L224.281,305.594z"/>
			</g>
			<g>
				<path style="fill:#FFE6DE;" d="M223.975,371.098c2.044-8.956,1.164-19.074,1.409-28.231c0.268-10.031,0.893-20.129,0.717-30.162
					c-0.015-0.876-1.29-0.86-1.35,0c-0.692,10.012-0.59,20.129-0.839,30.162c-0.227,9.15-1.618,19.188-0.046,28.231
					C223.876,371.153,223.963,371.15,223.975,371.098L223.975,371.098z"/>
			</g>
		</g>
		<g>
			<path style="fill:#FFE6DE;" d="M377.905,267.313c4.733-20.234,7.9-41.16,11.236-61.67c0.13-0.797-1.073-1.152-1.229-0.339
				c-3.941,20.459-8.169,41.234-10.707,61.914C377.156,267.618,377.815,267.699,377.905,267.313L377.905,267.313z"/>
		</g>
		<g>
			<path style="fill:#FFE6DE;" d="M396.669,195.727c7.984,0.315,15.62,0.276,23.564,1.557c0.718,0.116,1.043-0.96,0.307-1.112
				c-7.665-1.58-16.203-2.409-23.927-0.86C396.372,195.361,396.44,195.718,396.669,195.727L396.669,195.727z"/>
		</g>
		<g>
			<path style="fill:#FFFFFF;" d="M298.493,69.899c0,8.1,0,16.2,0,24.3c0,12.796,0,25.591,0,38.387c0,2.93,0,5.861,0,8.791
				c0,0.338,0.286,0.625,0.625,0.625c9.24,0,18.48,0,27.721,0c14.631,0,29.262,0,43.892,0c3.375,0,6.749,0,10.124,0
				c0.338,0,0.625-0.286,0.625-0.625c0-7.043,0-14.086,0-21.129c0-11.179,0-22.358,0-33.537c0-2.577,0-5.154,0-7.731
				c0-0.804-1.25-0.806-1.25,0c0,7.043,0,14.086,0,21.129c0,11.179,0,22.358,0,33.537c0,2.577,0,5.154,0,7.731
				c0.208-0.208,0.417-0.417,0.625-0.625c-9.24,0-18.481,0-27.721,0c-14.631,0-29.262,0-43.892,0c-3.375,0-6.749,0-10.124,0
				c0.208,0.208,0.417,0.417,0.625,0.625c0-8.1,0-16.2,0-24.3c0-12.796,0-25.591,0-38.387c0-2.931,0-5.861,0-8.791
				C299.743,69.094,298.493,69.093,298.493,69.899L298.493,69.899z"/>
		</g>
	</g>
</g>
<g id="Lines">
	<g>
		<path style="fill:#421B36;" d="M331.472,43.81c4.502-4.833,8.579-10.064,13.04-14.945c0.617-0.675-0.379-1.681-1.008-1.008
			c-4.497,4.817-9.026,10.001-12.32,15.731C331.083,43.765,331.327,43.965,331.472,43.81L331.472,43.81z"/>
	</g>
	<g>
		<path style="fill:#421B36;" d="M338.555,49.07c5.853-1.325,11.836-4.281,17.127-7.069c0.673-0.355,0.082-1.303-0.587-1.004
			c-5.493,2.46-11.456,4.807-16.602,7.928C338.415,48.972,338.467,49.09,338.555,49.07L338.555,49.07z"/>
	</g>
	<g>
		<path style="fill:#421B36;" d="M340.24,59.587c6.278,0.639,12.639,0.939,18.946,0.636c1.013-0.049,1.026-1.593,0-1.584
			c-6.33,0.052-12.621,0.042-18.946-0.289C339.434,58.308,339.462,59.508,340.24,59.587L340.24,59.587z"/>
	</g>
</g>
<g id="Device">
	<g>
		<g>
			<path style="fill:#A0D2F4;" d="M282.349,430.532c-1.741-0.976-58.746,4.391-78.354,12.683c-4.279,1.809-4.669,7.451-4.049,8.532
				c5.434,9.47,57.472,25.385,73.073,23.887c15.6-1.498,97.824-15.266,102.664-23.294c2.01-3.335,38.455-82.624,30.577-89.436
				c-4.351-3.762-93.511,6.206-102.319,14.111C295.133,384.92,282.349,430.532,282.349,430.532z"/>
			<g>
				<path style="fill:#FFFFFF;" d="M269.073,465.601c0,0-53.244-13.63-52.28-16.031c0.964-2.401,62.804-13.745,62.804-13.745
					S270.175,465.865,269.073,465.601z"/>
				<g>
					<path style="fill:#A0D2F4;" d="M230.69,455.185c15.955-2.816,31.605-8.459,47.082-13.146c0.641-0.194,0.359-1.215-0.277-1.003
						c-15.478,5.145-31.502,8.462-46.982,13.508C230.101,454.677,230.272,455.259,230.69,455.185L230.69,455.185z"/>
				</g>
				<g>
					<path style="fill:#A0D2F4;" d="M251.055,461.026c7.456-1.506,14.729-4.026,22.05-6.076c0.621-0.174,0.354-1.152-0.267-0.967
						c-7.288,2.17-14.787,3.917-21.9,6.618C250.675,460.701,250.774,461.083,251.055,461.026L251.055,461.026z"/>
				</g>
				<g>
					<path style="fill:#A0D2F4;" d="M231.614,446.023c12.916,4.315,25.975,8.241,39.041,12.083c0.762,0.224,1.052-0.912,0.324-1.175
						c-12.805-4.632-26.204-7.499-39.158-11.658C231.342,445.119,231.141,445.865,231.614,446.023L231.614,446.023z"/>
				</g>
				<g>
					<path style="fill:#A0D2F4;" d="M255.048,440.844c12.916,4.315,25.975,8.241,39.041,12.083c0.762,0.224,1.052-0.912,0.324-1.175
						c-12.805-4.632-26.204-7.499-39.158-11.658C254.776,439.94,254.575,440.686,255.048,440.844L255.048,440.844z"/>
				</g>
			</g>
			<g>
				<path style="fill:#421B36;" d="M268.068,471.366c2.654-4.557,4.107-10.096,5.822-15.049c2.61-7.54,5.068-15.13,7.563-22.708
					c4.667-14.174,9.142-28.504,14.872-42.295c0.303-0.729-0.972-1.274-1.285-0.542c-5.711,13.367-10.081,27.329-14.605,41.13
					c-2.445,7.457-4.885,14.916-7.33,22.373c-1.826,5.567-4.224,11.158-5.611,16.849C267.41,471.465,267.885,471.68,268.068,471.366
					L268.068,471.366z"/>
			</g>
			<g>
				<path style="fill:#421B36;" d="M297.895,387.555c0.458-1.096,1.041-2.138,1.52-3.227c0.324-0.735-0.738-1.19-1.02-0.43
					c-0.425,1.147-0.742,2.33-1.187,3.467C297.039,387.797,297.721,387.969,297.895,387.555L297.895,387.555z"/>
			</g>
			<g>
				<path style="fill:#421B36;" d="M310.417,378.691c15.456-2.423,30.698-5.657,46.252-7.58c14.933-1.847,29.915-3.281,44.906-4.565
					c0.675-0.058,0.678-1.122,0-1.059c-15.617,1.444-31.242,2.823-46.802,4.81c-14.808,1.891-30.146,3.667-44.531,7.762
					C309.827,378.177,310.009,378.755,310.417,378.691L310.417,378.691z"/>
			</g>
		</g>
		<g>
			<path style="fill:#FFFFFF;" d="M304.231,454.687c-0.445,0.135-0.934,0.072-1.339-0.174c-0.397-0.241-1.025-0.621-1.855-4.265
				c-0.67,0.325-1.393,0.647-1.921,0.808c-0.918,0.279-1.63,0.141-2.116-0.411c-0.584-0.663-0.877-1.469,0.964-4.828
				c-1.171-0.886-2.621-2.293-2.715-3.873c-0.037-0.627,0.303-1.476,1.384-1.804c0.594-0.181,1.526-0.213,2.37-0.194
				c-0.233-4.675-0.147-5.359,1.066-5.728l0.27-0.082l0.286,0.02c0.62,0.046,1.261,0.093,3.519,3.839
				c1.24-1.321,2.708-2.697,3.688-2.994c0.076-0.023,0.15-0.041,0.22-0.055c0.639-0.126,1.276,0.11,1.664,0.616
				c0.448,0.583,0.999,1.301-1.652,6.916c1.545,1.317,3.14,2.782,3.518,3.506c0.305,0.585,0.342,1.217,0.105,1.782
				c-0.276,0.656-0.871,1.127-1.769,1.4c-1.053,0.32-2.581,0.38-3.706,0.372c-0.141,1.098-0.384,2.62-0.76,3.818
				C305.175,454.233,304.635,454.564,304.231,454.687z"/>
			<path style="fill:#8380FF;" d="M300.512,435.662c-0.224-0.017,0.086,5.89,0.086,5.89s-3.882-0.367-3.842,0.302
				c0.098,1.642,3.213,3.497,3.213,3.497s-2.258,3.817-1.836,4.297c0.316,0.359,3.979-1.655,3.979-1.655s1.289,6.847,1.897,4.909
				c0.608-1.938,0.851-4.922,0.851-4.922s6.278,0.42,5.381-1.298c-0.407-0.781-4.048-3.804-4.048-3.804s3.268-6.671,2.148-6.451
				c-1.121,0.22-4.457,4.125-4.457,4.125S301.148,435.709,300.512,435.662z"/>
		</g>
		<g>
			<path style="fill:#FFFFFF;" d="M336.134,455.088c-4.037,0.08-7.235-1.408-9.009-4.191c-2.308-3.617-1.933-7.133-1.006-9.45
				c-1.421-2.622-3.742-7.853-2.199-11.734c0.53-1.335,1.716-3.053,4.356-3.783c0.453-0.18,0.959-0.275,1.532-0.287
				c0.437-0.009,0.982,0.041,1.569,0.148c0.504-0.858,1.518-1.956,3.504-2.406c0.466-0.105,0.951-0.163,1.443-0.173
				c4.228-0.084,8.634,3.341,11.241,8.63c2.69,1.089,6.326,3.833,6.403,8.862c0.108,7.306-6.724,10.781-10.008,12.451
				C341.682,454.314,338.757,455.036,336.134,455.088z"/>
			<path style="fill:#8380FF;" d="M329.177,441.326c0,0-6.953-11.104-0.084-12.771c0.883-0.497,3.842,0.359,4.469,1.04
				c0.167,0.181-1.311-2.795,1.839-3.508c3.15-0.713,7.687,2.013,10.239,8.031c0,0,5.587,1.355,5.666,6.685
				c0.08,5.329-4.91,8.062-8.48,9.878c-3.569,1.816-10.691,3.029-13.475-1.336C326.566,444.977,329.177,441.326,329.177,441.326z"/>
			<g>
				<path style="fill:#421B36;" d="M337.437,435.663c-0.834-2.424-2.231-4.561-3.964-6.438c-0.219-0.237-0.572,0.117-0.354,0.354
					c1.672,1.811,3.03,3.876,3.835,6.217C337.059,436.099,337.542,435.969,337.437,435.663L337.437,435.663z"/>
			</g>
			<path style="fill:#421B36;" d="M337.483,442.182c0.266,0.782,0.057,1.578-0.467,1.779c-0.524,0.201-1.164-0.27-1.43-1.051
				c-0.266-0.782-0.057-1.578,0.467-1.779C336.577,440.93,337.217,441.401,337.483,442.182z"/>
			<path style="fill:#421B36;" d="M343.141,439.554c0.259,0.76,0.055,1.535-0.454,1.731c-0.51,0.196-1.132-0.262-1.391-1.023
				c-0.259-0.76-0.055-1.535,0.454-1.731C342.26,438.335,342.882,438.793,343.141,439.554z"/>
			<g>
				<path style="fill:#421B36;" d="M340.705,442.134c-0.039,0.006-0.86,0.274-1.094,0.613c-0.234,0.339,0.657,1.063,1.057,0.66
					C341.069,443.005,341.202,442.055,340.705,442.134z"/>
				<g>
					<path style="fill:#421B36;" d="M340.283,443.334c0.077,0.365,0.199,0.716,0.355,1.055c0.055,0.119,0.236,0.158,0.342,0.09
						c0.123-0.079,0.148-0.215,0.09-0.342c-0.01-0.022-0.02-0.044-0.03-0.067c-0.003-0.007-0.016-0.047-0.022-0.051
						c0.013,0.031,0.015,0.034,0.004,0.009c-0.005-0.011-0.009-0.023-0.014-0.034c-0.007-0.017-0.014-0.034-0.02-0.051
						c-0.031-0.08-0.06-0.161-0.087-0.243c-0.054-0.164-0.098-0.331-0.134-0.499c-0.027-0.128-0.184-0.215-0.307-0.175
						C340.322,443.07,340.254,443.197,340.283,443.334L340.283,443.334z"/>
				</g>
				<g>
					<path style="fill:#421B36;" d="M339.783,444.586c0.773,0.293,1.641-0.082,2.031-0.792c0.065-0.118,0.029-0.273-0.09-0.342
						c-0.114-0.067-0.277-0.029-0.342,0.09c-0.138,0.251-0.318,0.423-0.584,0.551c-0.039,0.019,0.027-0.01-0.012,0.006
						c-0.018,0.007-0.037,0.014-0.056,0.021c-0.039,0.014-0.078,0.025-0.118,0.035c-0.083,0.021-0.136,0.029-0.222,0.031
						c-0.172,0.006-0.309-0.02-0.473-0.082c-0.126-0.048-0.274,0.053-0.307,0.175C339.57,444.419,339.657,444.538,339.783,444.586
						L339.783,444.586z"/>
				</g>
			</g>
			<g style="opacity:0.2;">
				<path style="fill:#421B36;" d="M333.998,444.938c-0.346,0.235-0.685,0.493-0.944,0.827c-0.26,0.334-0.436,0.754-0.414,1.179
					c0.04,0.756,0.698,1.332,1.396,1.541c0.48,0.143,1.015,0.153,1.473-0.07c0.774-0.377,1.158-1.418,0.879-2.245
					C336.109,445.344,335.563,444.421,333.998,444.938"/>
			</g>
			<g style="opacity:0.2;">
				<path style="fill:#421B36;" d="M346.164,439.434c-0.453,0.258-0.8,0.476-1.165,0.857c-0.365,0.381-0.628,0.903-0.585,1.432
					c0.062,0.769,0.767,1.344,1.501,1.454c0.748,0.112,1.561-0.194,2.037-0.815c0.476-0.622,0.567-1.545,0.178-2.212
					C347.741,439.483,346.875,439.15,346.164,439.434"/>
			</g>
		</g>
		<g>
			<g>
				<path style="fill:#FFFFFF;" d="M357.801,397.217c0.173-1.795-1.109-3.495-2.982-3.954c-1.23-0.291-2.35-0.024-3.087,0.161
					c-2.07,0.521-4.136,1.104-6.185,1.738c-2.041-3.601-5.555-6.344-9.92-7.234c-8.008-1.633-15.852,3.552-17.485,11.56
					c-0.348,1.708-0.37,3.404-0.136,5.038c-2.765,1.11-5.401,2.52-7.864,4.208c-2.837,1.943-2.538,4.103-2.279,4.94
					c0.42,1.358,1.491,2.242,2.948,2.539c0.831,0.169,1.788,0.148,2.821-0.085c3.16-0.712,6.305-1.518,9.432-2.395
					c1.845,1.575,4.098,2.722,6.638,3.24c8.008,1.633,15.851-3.552,17.484-11.56c0.018-0.086,0.023-0.172,0.039-0.258
					c2.906-1.277,6.053-2.836,8.798-5.038C356.468,399.76,357.649,398.812,357.801,397.217z"/>
				
					<ellipse transform="matrix(0.8045 -0.5939 0.5939 0.8045 -174.2393 276.2871)" style="fill:#8380FF;" cx="332.587" cy="402.83" rx="12.783" ry="12.783"/>
				<g>
					<path style="fill:#FFFFFF;" d="M339.555,391.627c-1.306,5.381-6.495,8.334-10.325,11.805c-1.779,1.612-3.48,3.486-4.401,5.736
						c-0.606,1.48-0.608,3.607,0.113,5.047c0.291,0.581,1.131,0.018,0.843-0.557c-0.949-1.895-0.121-4.261,0.933-5.886
						c1.351-2.083,3.279-3.742,5.182-5.302c3.566-2.92,7.502-5.93,8.645-10.641C340.699,391.196,339.708,390.995,339.555,391.627
						L339.555,391.627z"/>
				</g>
				<g>
					<path style="fill:#FFFFFF;" d="M333.716,415.822c3.361-5.241,7.919-9.635,13.259-12.831c0.559-0.335,0-1.177-0.557-0.843
						c-5.495,3.29-10.147,7.827-13.603,13.217C332.464,415.912,333.368,416.364,333.716,415.822L333.716,415.822z"/>
				</g>
				<g>
					<path style="fill:#421B36;" d="M319.754,405.988c-2.154,0.964-4.355,1.832-6.41,3.001c-1.328,0.755-4.658,2.396-3.497,4.458
						c0.98,1.74,3.808,0.709,5.239,0.371c2.795-0.66,5.574-1.384,8.335-2.172c5.522-1.577,10.971-3.409,16.324-5.489
						c4.956-1.926,10.21-3.854,14.49-7.085c0.799-0.603,1.875-1.365,1.62-2.522c-0.227-1.028-1.318-1.522-2.285-1.499
						c-1.443,0.035-2.961,0.637-4.337,1.019c-1.568,0.436-3.124,0.91-4.671,1.414c-0.618,0.201-0.295,1.159,0.326,0.957
						c2.202-0.717,4.424-1.368,6.666-1.949c0.57-0.148,1.173-0.354,1.764-0.408c0.249-0.023,0.577-0.047,0.823,0.029
						c0.56,0.173,0.707,0.823,0.46,1.345c-0.193,0.408-1.113,0.917-1.482,1.18c-0.471,0.335-0.953,0.654-1.444,0.958
						c-3.755,2.33-7.976,3.936-12.08,5.535c-8.491,3.31-17.226,5.995-26.11,8.026c-0.78,0.178-3.864,0.609-2.555-1.235
						c0.645-0.909,2.023-1.549,2.973-2.09c1.98-1.127,4.103-1.958,6.178-2.887C320.668,406.682,320.349,405.722,319.754,405.988
						L319.754,405.988z"/>
				</g>
				<g>
					<path style="fill:#FFFFFF;" d="M319.839,401.612c3.314,0.657,6.766-0.384,9.401-2.442c2.894-2.26,4.727-5.538,5.878-8.971
						c0.206-0.615-0.786-0.812-0.99-0.202c-1.059,3.161-2.784,6.245-5.445,8.33c-2.427,1.901-5.578,2.902-8.642,2.295
						C319.403,400.495,319.199,401.485,319.839,401.612L319.839,401.612z"/>
				</g>
			</g>
			<g>
				<path style="fill:#FFFFFF;" d="M380.387,427.911c1.051-0.72,1.391-2.185,0.792-3.409c-0.4-0.799-1.052-1.285-1.486-1.6
					c-1.221-0.886-2.473-1.741-3.746-2.565c1.027-2.738,0.921-5.887-0.575-8.656c-2.744-5.081-9.11-6.982-14.191-4.238
					c-1.083,0.585-2.012,1.342-2.793,2.209c-1.855-0.996-3.814-1.785-5.845-2.355c-2.339-0.657-3.374,0.484-3.71,1.004
					c-0.546,0.843-0.539,1.824-0.04,2.748c0.285,0.527,0.73,1.036,1.325,1.491c1.818,1.39,3.68,2.73,5.573,4.027
					c-0.018,1.714,0.382,3.455,1.252,5.067c2.744,5.081,9.109,6.982,14.19,4.238c0.055-0.03,0.103-0.065,0.157-0.096
					c2.009,0.997,4.281,1.996,6.718,2.485C378.404,428.341,379.453,428.552,380.387,427.911z"/>
				<path style="fill:#A0D2F4;" d="M369.861,424.011c-4.079,2.203-9.172,0.682-11.375-3.397c-2.203-4.079-0.682-9.172,3.397-11.375
					c4.079-2.203,9.172-0.682,11.375,3.397C375.462,416.715,373.941,421.808,369.861,424.011z"/>
				<g>
					<path style="fill:#8380FF;" d="M358.91,411.262c-1.511-0.739-2.991-1.544-4.586-2.093c-0.97-0.334-2.536-0.97-3.35,0.009
						c-0.977,1.177,0.478,2.393,1.344,3.049c1.592,1.204,3.214,2.37,4.863,3.494c3.338,2.277,6.79,4.385,10.334,6.324
						c1.737,0.95,3.491,1.89,5.297,2.703c1.48,0.666,3.474,1.652,5.143,1.583c1.306-0.054,1.667-1.504,0.936-2.445
						c-0.539-0.694-1.424-1.173-2.133-1.667c-0.98-0.682-1.978-1.337-2.989-1.971c-0.599-0.376-1.265,0.505-0.663,0.883
						c1.533,0.962,3.181,1.923,4.561,3.099c0.39,0.157,0.463,0.38,0.22,0.667c-0.011,0.316-0.144,0.41-0.397,0.281
						c-0.447,0.117-1.358-0.337-1.812-0.486c-0.771-0.253-1.525-0.556-2.267-0.884c-3.519-1.557-6.902-3.507-10.186-5.503
						c-3.176-1.931-6.264-4.007-9.252-6.219c-0.449-0.333-2.122-1.222-2.161-1.877c-0.058-0.961,2.003-0.056,2.436,0.102
						c1.47,0.537,2.846,1.287,4.248,1.973C359.135,412.598,359.544,411.572,358.91,411.262L358.91,411.262z"/>
				</g>
			</g>
		</g>
		<g>
			<path style="fill:#FFFFFF;" d="M382.619,397.948c0.59-0.639,0.594-1.666,0.009-2.389c-0.387-0.471-0.895-0.695-1.232-0.839
				c-0.947-0.404-1.91-0.783-2.882-1.138c0.268-1.978-0.282-4.057-1.698-5.673c-2.598-2.964-7.123-3.262-10.087-0.664
				c-0.632,0.554-1.135,1.199-1.523,1.895c-1.386-0.381-2.809-0.609-4.248-0.679c-1.656-0.082-2.172,0.835-2.317,1.232
				c-0.235,0.644-0.082,1.296,0.391,1.835c0.27,0.308,0.643,0.579,1.108,0.791c1.421,0.649,2.864,1.257,4.321,1.833
				c0.249,1.143,0.779,2.241,1.603,3.181c2.598,2.964,7.123,3.262,10.087,0.664c0.032-0.028,0.059-0.059,0.09-0.088
				c1.488,0.358,3.152,0.678,4.848,0.633C381.365,398.535,382.095,398.516,382.619,397.948z"/>
			<path style="fill:#8380FF;" d="M374.659,396.594c-2.18,1.91-5.495,1.692-7.405-0.487c-1.91-2.18-1.692-5.495,0.488-7.405
				c2.179-1.91,5.495-1.692,7.405,0.488S376.839,394.684,374.659,396.594z"/>
			<g>
				<path style="fill:#421B36;" d="M365.935,390.145c-1.437-0.33-3.026-0.867-4.522-0.735c-0.976,0.086-1.747,0.942-1.034,1.849
					c0.374,0.476,1.011,0.688,1.544,0.923c0.951,0.418,1.909,0.818,2.875,1.199c1.672,0.66,3.367,1.266,5.078,1.818
					c1.793,0.579,3.606,1.098,5.435,1.55c1.585,0.392,3.602,0.987,5.258,0.686c0.919-0.167,1.342-1.115,0.682-1.86
					c-0.438-0.494-1.196-0.688-1.776-0.942c-0.864-0.38-1.726-0.76-2.617-1.076c-0.605-0.215-1.07,0.685-0.458,0.901
					c1.056,0.374,2.071,0.841,3.098,1.287c0.157,0.068,0.635,0.167,0.732,0.319c0.287,0.457-0.257,0.389-0.536,0.382
					c-0.653-0.017-1.301-0.093-1.944-0.202c-2.47-0.419-4.914-1.16-7.299-1.917c-2.432-0.772-4.826-1.662-7.175-2.661
					c-0.473-0.201-1.217-0.364-1.605-0.703c-0.784-0.685,0.521-0.526,0.993-0.468c1.039,0.127,2.052,0.406,3.07,0.64
					C366.368,391.281,366.569,390.291,365.935,390.145L365.935,390.145z"/>
			</g>
		</g>
	</g>
</g>
<g id="Character">
	<g>
		<g>
			<path style="fill:#FFAE7A;" d="M294.17,100.03c-0.004-0.6-2.935-22.197-2.395-32.407c0.539-10.21,0.983-37.184,7.776-39.025
				c6.793-1.842,5.444,7.526,4.87,11.932c-0.574,4.406-1.339,10.415-1.339,10.415s10.385-3.664,12.628,3.327
				c0,0,5.996-2.966,9.441,4.218c0,0,6.821-2.143,8.023,4.483c1.217,6.707,0.368,10.326-4.066,13.655c0,0,2.819,11.969-5.14,19.822
				c0,0,7.171,27.775,2.984,30.402c-4.187,2.627-29.217,0.375-30.641-3.419C294.887,119.639,294.17,100.03,294.17,100.03z"/>
			<g>
				<path style="fill:#421B36;" d="M294.864,72.676c1.095-2.861,2.855-5.469,5.772-6.678c2.78-1.152,6.099-1.143,9.005-0.603
					c3.588,0.667,7.362,1.96,10.603,3.644c1.454,0.756,2.901,1.798,3.447,3.415c0.586,1.737-0.077,3.697-1.293,4.999
					c-3.296,3.532-8.759,2.186-12.738,0.901c-0.448-0.145-0.907,0.324-0.769,0.769c1.046,3.358,1.321,7.213-0.439,10.394
					c-1.538,2.781-4.519,4.663-7.737,4.342c-0.8-0.08-0.794,1.171,0,1.25c3.514,0.35,6.837-1.683,8.631-4.643
					c2.125-3.505,1.927-7.893,0.749-11.676c-0.256,0.256-0.513,0.512-0.769,0.769c4.094,1.322,8.995,2.428,12.82-0.252
					c2.915-2.042,4.072-6.184,1.698-9.082c-1.156-1.412-2.841-2.271-4.49-2.971c-2.182-0.926-4.427-1.77-6.706-2.425
					c-3.71-1.067-7.84-1.511-11.582-0.313c-3.766,1.205-6.039,4.248-7.409,7.827C293.371,73.096,294.579,73.421,294.864,72.676
					L294.864,72.676z"/>
			</g>
			<g>
				<path style="fill:#421B36;" d="M324.9,59.285c0.919,1.693,1.275,3.659,1.016,5.569c-0.192,1.413-1.055,4.735-3.044,4.401
					c-0.787-0.132-1.125,1.072-0.332,1.205c2.691,0.452,4.056-2.579,4.492-4.749c0.483-2.401,0.117-4.904-1.051-7.058
					C325.595,57.947,324.516,58.577,324.9,59.285L324.9,59.285z"/>
			</g>
			<g>
				<path style="fill:#421B36;" d="M315.107,54.536c1.066,3.387,2.493,8.447-1.071,10.945c-0.654,0.458-0.03,1.543,0.631,1.079
					c1.69-1.185,2.591-3.071,2.839-5.087c0.305-2.477-0.459-4.936-1.193-7.27C316.072,53.439,314.865,53.765,315.107,54.536
					L315.107,54.536z"/>
			</g>
			<g>
				<path style="fill:#421B36;" d="M302.457,50.251c-0.621,4.766-1.347,9.517-2.171,14.252c-0.137,0.787,1.068,1.125,1.205,0.332
					c0.843-4.845,1.58-9.708,2.216-14.584C303.81,49.456,302.559,49.464,302.457,50.251L302.457,50.251z"/>
			</g>
			<g>
				<path style="fill:#421B36;" d="M304.767,58.323c0.436,0.834,0.462,1.949,0.419,2.906c-0.047,1.035-0.215,2.071-0.521,3.062
					c-0.238,0.77,0.968,1.1,1.205,0.332c0.347-1.123,0.526-2.316,0.57-3.489c0.044-1.159-0.047-2.398-0.593-3.443
					C305.473,56.979,304.394,57.61,304.767,58.323L304.767,58.323z"/>
			</g>
			<g>
				<path style="fill:#421B36;" d="M324.174,74.725c1.079,1.95,3.5,2.865,5.592,2.056c0.315-0.122,0.532-0.42,0.437-0.769
					c-0.083-0.301-0.452-0.559-0.769-0.437c-0.833,0.322-1.758,0.351-2.587-0.007c-0.66-0.285-1.232-0.822-1.593-1.474
					C324.864,73.39,323.784,74.02,324.174,74.725L324.174,74.725z"/>
			</g>
			<g>
				<path style="fill:#421B36;" d="M316.43,66.98c-1.004,1.714-1.013,3.878-0.121,5.639c0.906,1.789,2.764,2.861,4.735,2.99
					c1.092,0.072,2.195-0.179,3.151-0.711c0.703-0.391,0.073-1.471-0.631-1.079c-1.703,0.948-4.005,0.655-5.39-0.73
					c-1.414-1.414-1.667-3.767-0.665-5.478C317.917,66.915,316.837,66.285,316.43,66.98L316.43,66.98z"/>
			</g>
			<g>
				<path style="fill:#421B36;" d="M327.278,75.931c0.191-1.1,0.662-2.211,1.57-2.909c0.845-0.649,2.063-0.846,3.003-0.3
					c0.697,0.405,1.327-0.675,0.631-1.079c-1.289-0.749-2.988-0.6-4.196,0.251c-1.225,0.862-1.96,2.248-2.213,3.705
					c-0.058,0.332,0.089,0.673,0.436,0.769C326.811,76.451,327.22,76.266,327.278,75.931L327.278,75.931z"/>
			</g>
		</g>
		<g>
			<g>
				<path style="fill:#8380FF;" d="M305.849,114.009c0,0,21.957,1.849,30.694,15.276c8.737,13.427,21.509,72.984-2.872,127.968
					s-45.532,64.786-45.532,64.786s-48.494-25.905-50.867-23.389c-4.378,4.641,29.372-62.075,36.407-89.653
					c6.864-26.904,3.513-44.388,5.753-61.115C281.672,131.155,270.967,108.217,305.849,114.009z"/>
				<path style="fill:#A0D2F4;" d="M269.493,222.484c0,0,64.57,8.845,70.657,17.42c-3.099,9.662-6.615,18.197-10.206,25.739
					l-66.268-14.739L269.493,222.484z"/>
				<path style="fill:#8380FF;" d="M329.91,116.827c-0.438-2.952-1.782-5.905-4.332-7.848c-2.556-1.948-5.996-2.673-9.309-3.235
					c-4.92-0.834-9.888-1.447-14.878-1.836c-3.354-0.262-7.098-0.316-9.645,1.633c-1.82,1.392-2.65,3.587-2.737,5.714
					c-0.087,2.127,0.483,4.227,1.05,6.296l39.533,8.18C329.97,122.772,330.348,119.779,329.91,116.827z"/>
				<g>
					<path style="fill:#421B36;" d="M303.686,104.023c-1.108,2.852-0.931,7.512-0.072,10.411c0.166,0.56,0.997,0.448,1.013-0.137
						c0.05-1.826-0.318-3.676-0.394-5.508c-0.066-1.59,0.049-3.211-0.321-4.766C303.883,103.901,303.725,103.924,303.686,104.023
						L303.686,104.023z"/>
				</g>
				<g>
					<path style="fill:#421B36;" d="M315.873,105.367c1.043,4.061,1.244,7.843,0.714,11.989c-0.08,0.629,0.926,0.733,1.087,0.147
						c1.122-4.102,0.509-8.562-1.621-12.212C315.997,105.195,315.845,105.259,315.873,105.367L315.873,105.367z"/>
				</g>
			</g>
			<path style="opacity:0.3;fill:#421B36;" d="M276.391,200.44l0.088-0.233c0.005,0.04,0.013,0.074,0.017,0.117
				C276.467,200.368,276.425,200.4,276.391,200.44z M282.63,197.361c0.704,1.099,1.898,1.228,3.015,1.696
				c0.351,0.72,0.415,1.148,0.181,1.913c0.946,0.507,1.787,0.091,2.347-0.701c-0.186-0.272-0.376-0.539-0.573-0.8
				c-0.716-0.324-1.582-0.328-2.086-0.982c-0.421-0.424,0.002-0.958-0.168-1.459c-0.005-0.028-0.019-0.043-0.025-0.069
				c-0.359-0.323-0.732-0.623-1.115-0.904C283.528,196.078,282.78,196.589,282.63,197.361z M254.916,284.294
				c1.196-0.508,0.082-1.882-0.645-2.29c-0.502,0.09-0.984,0.175-1.477,0.263c-0.102,0.403-0.196,0.781-0.3,1.192
				C253.042,284.631,253.761,285.074,254.916,284.294z M293.354,256.144c-1.37,0.525-2.582,2.391-0.541,2.794
				C294.226,258.998,295.554,256.618,293.354,256.144z M281.252,244.611c-4.044,0.782,1.602,5.424,1.14,0.888
				C281.996,245.241,281.758,244.784,281.252,244.611z M283.944,247.541c-0.366,0.288-0.744,0.588-1.101,0.87
				c-0.284,1.952,1.411,2.232,2.669,1.421C285.581,248.886,285.126,247.699,283.944,247.541z M279.81,210.502
				c-0.063,0.413-0.128,0.827-0.188,1.225c0.308,0.352,0.596,0.682,0.859,0.981c0.845,0.187,1.506-0.023,2.023-0.635
				C282.4,210.579,281.727,210.184,279.81,210.502z M279.146,242.323c-0.397-0.187-0.789-0.371-1.158-0.545
				c-0.731,0.389-0.876,1.077-1.17,1.618c0.215,0.387,0.406,0.726,0.643,1.151C279.046,244.985,280.086,243.575,279.146,242.323z
				 M262.418,241.662c0.712,0.166,1.194-0.243,1.827-0.576C264.476,237.369,259.693,239.601,262.418,241.662z M273.269,209.373
				c0.205-0.354,0.222-0.694,0.112-1l-0.656,1.729C272.975,210.018,273.179,209.809,273.269,209.373z M296.238,255.824
				c1.573,0.001,1.815-1.921,0.486-2.543C294.354,253.472,293.977,255.008,296.238,255.824z M289.008,261.136
				c1.208,1.303,3.193-0.467,2.175-1.906C289.871,258.903,287.965,259.671,289.008,261.136z M294.235,269.207
				c0.622-2.329-3.407-1.409-2.59,0.615C292.793,270.503,293.926,270.435,294.235,269.207z M308.003,244.35
				c0.418,0.043,0.747-0.083,0.995-0.289c-0.214-0.776-0.444-1.547-0.694-2.311c-0.232,0.063-0.437,0.251-0.673,0.426
				C306.349,242.379,306.781,244.476,308.003,244.35z M250.808,267.849l-0.781,2.057
				C253.062,271.249,252.792,267.331,250.808,267.849z M250.969,284.94c0.354,0.202,0.713,0.398,1.079,0.578
				c-0.088-0.144-0.174-0.287-0.233-0.419C251.523,284.969,251.237,284.928,250.969,284.94z M298.559,256.066
				c-0.35,0.524-0.656,0.983-0.956,1.429C299.357,261.084,302.117,256.583,298.559,256.066z M297.987,246.877
				c1.419,0.884,2.759-0.124,2.327-1.647c-0.355-0.234-0.658-0.432-0.982-0.646C298.295,244.788,297.386,245.797,297.987,246.877z
				 M247.334,282.29c0.539,0.503,1.114,0.969,1.711,1.409c0.01-0.051,0.025-0.098,0.03-0.152
				C249.516,282.458,248.191,281.986,247.334,282.29z M268.618,253.25c1.471-0.602,2.706-1.666,0.906-2.653
				c-0.603,0.124-1.159,0.237-1.687,0.346c-0.106,0.446-0.196,0.826-0.286,1.207C267.906,252.517,268.243,252.865,268.618,253.25z
				 M273.547,211.053c-0.151,0.545,1.761,2.772,2.391,2.315c0.229-0.89-0.312-1.714,0.311-2.521
				C275.503,210.152,275.045,210.19,273.547,211.053z M268.978,233.064c-1.9,0.999-1.281,3.523,0.9,2.434
				C270.81,234.64,270.295,233.25,268.978,233.064z M282.197,281.346c1.516-2.947-3.925-2.44-2.048,0.229
				C280.938,281.844,281.556,281.429,282.197,281.346z M249.817,279.747c0.029,1.674,0.435,2.871,2.241,1.626
				C252.909,279.796,251.174,278.625,249.817,279.747z M311.1,258.808c-0.005-0.819-0.032-1.638-0.079-2.457
				c-0.22-0.046-0.464-0.038-0.755,0.09c-0.197,0.29-0.418,0.613-0.678,0.995C309.865,258.252,310.506,258.726,311.1,258.808z
				 M291.6,262.93c0.098,1.792,2.28,2.009,2.89,0.392C293.746,261.497,292.86,261.563,291.6,262.93z M296.857,278.598
				c1.012-0.182,0.402-1.197,0.419-1.93c-0.337-0.172-0.661-0.337-0.972-0.495c-0.523,0.148-0.984,0.308-1.311,0.783
				C295.004,278.177,295.319,279.351,296.857,278.598z M274.397,233.443c-0.747,0.259-0.255,1.066-0.833,1.608
				c0.737,0.786,1.889,1.258,2.638,0.289C276.535,233.82,275.532,233.123,274.397,233.443z M261.795,285.434
				c-0.502,2.855,3.278,2.386,2.363-0.258C263.146,284.685,263.146,284.685,261.795,285.434z M287.031,258.879
				c1.601-0.775,2.175-2.528-0.202-2.559C285.253,256.552,285.641,258.562,287.031,258.879z M276.609,220.318
				c0.332,0.903,1.052,1.365,1.966,0.826C281.298,219.923,276.998,217.666,276.609,220.318z M275.899,239.172
				c-0.798-0.307-1.652,0.053-2.482-0.123C273.434,241.724,277.294,242.562,275.899,239.172z M289.193,249.983
				c2.147,0.721,3.275-2.465,0.599-2.437C288.877,247.989,288.515,249.289,289.193,249.983z M279.856,252.569
				c1.4,0.748,1.978,0.572,2.686-0.845C281.874,249.74,279.326,250.592,279.856,252.569z M254.113,259.143l-0.818,2.155
				C254.928,262.417,256.519,259.878,254.113,259.143z M275.327,256.362c-0.272,0.138-0.486,0.247-0.676,0.343
				c-0.43-0.119-0.404-0.787-1.13-0.608C273.466,260.749,278.241,258.215,275.327,256.362z M297.231,261.068
				c0.393-1.16-0.64-2.585-1.8-1.977C294.157,260.764,295.305,262.25,297.231,261.068z M269.907,222.261
				c-0.626-0.427-1.187-0.608-1.639-0.418l-0.551,1.452C268.551,224.844,271.157,224.237,269.907,222.261z M270.487,257.754
				c-0.216-0.383-0.37-0.798-0.662-1.122c-1.656-0.142-1.725-0.106-2.271,1.205C268.358,259.081,269.945,259.361,270.487,257.754z
				 M259.171,278.768c1.329,0.315,1.77-0.438,2.317-1.447C260.059,275.541,257.63,276.828,259.171,278.768z M288.928,237.701
				c0.056,0.476,0.095,0.583,0.489,0.651c1.05,0.366,1.792-0.094,2.206-1.02C290.799,235.808,288.439,235.54,288.928,237.701z
				 M296.577,238.824c0.887-0.231,0.208-1.353,0.77-1.962C295.081,234.536,293.511,238.996,296.577,238.824z M280.129,241.38
				c1.655,0.533,1.847-0.36,2.394-1.627C281.15,238.477,278.288,239.995,280.129,241.38z M300.874,237.947
				c1.176,1.589,1.943,0.631,2.668-0.587C303.206,235.727,300.416,236.001,300.874,237.947z M288.343,218.356
				c0.133-0.84,0.394-2.267-1.04-2.234c-0.833-0.186-1.136,0.802-1.436,1.401C285.666,218.497,287.717,218.511,288.343,218.356z
				 M288.9,203.611c0.437,0.457,0.959,0.596,1.426,0.518c-0.305-0.674-0.635-1.338-0.993-1.983
				c-0.225,0.122-0.442,0.261-0.628,0.411C288.776,202.939,288.839,203.284,288.9,203.611z M276.402,251.541
				c-0.69-1.054-2.468-1.073-2.84,0.259C274.029,253.592,276.776,253.335,276.402,251.541z M303.883,257.867
				c0.572,1.872,2.582,0.756,2.648-0.844C305.585,255.938,303.761,256.302,303.883,257.867z M291.714,211.404
				c-0.363,0.612,0.388,1.135,1.044,1.43c-0.077-0.68-0.186-1.382-0.325-2.099C292.172,210.934,291.931,211.19,291.714,211.404z
				 M272.644,261.497c0.042-0.51,0.776-0.732,0.686-1.453c-0.982-1.3-2.357-1.285-2.823,0.389
				C271.21,260.791,271.491,261.802,272.644,261.497z M265.37,232.427c-0.019,0.219-0.035,0.399-0.057,0.667
				c0.889,0.003,1.209-0.747,1.872-0.941c0-0.44,0-0.828,0-1.249c-0.885-0.856-2.132-0.512-2.526,0.453l-0.013,0.034
				c-0.051,0.135-0.089,0.28-0.104,0.436C264.812,232.024,265.099,232.232,265.37,232.427z M258.358,286.154
				c-0.162-0.759-0.787-0.948-1.247-1.213c-0.948,0.07-1.409,0.57-1.62,1.379c0.199,0.23,0.4,0.463,0.595,0.688
				c0.443,0.111,0.893,0.188,1.342,0.268C257.828,287.042,258.06,286.566,258.358,286.154z M297.573,272.443
				c-0.305-1.389-2.256-2.656-2.743-0.698C295.123,273.247,296.661,273.807,297.573,272.443z M283.905,264.965
				c-0.963,0.246-1.362,2.695,0.153,2.283C286.056,267.57,285.941,264.481,283.905,264.965z M287.763,245.101
				c-1.892-0.885-2.139,1.133-1.258,2.323C287.782,247.634,289.531,245.71,287.763,245.101z M291.842,251.706
				c0.111,0.287,0.238,0.615,0.328,0.845c0.486,0.226,0.878,0.409,1.29,0.601c0.171-0.083,0.352-0.172,0.593-0.291
				c-0.163-0.697-0.163-0.697,0.411-1.289C294.02,250.066,292.031,250.17,291.842,251.706z M290.36,256.042
				c0.776-0.589,0.829-0.671,1.149-1.776c-0.359-0.452-0.805-0.622-1.351-0.984C288.743,254.213,288.223,255.786,290.36,256.042z
				 M276.871,255.484c0.754,0.708,2.356-0.01,2.649-1.152C278.579,252.609,276.219,253.777,276.871,255.484z M294,235.356
				c0.644-1.274-0.009-1.4-0.913-2.163c-0.879,0.216-1.292,0.761-1.519,1.564C292.486,235.833,292.667,235.874,294,235.356z
				 M287.364,261.792c-0.547,0.329-1.032,0.621-1.504,0.905C285.315,266.067,290.671,263.556,287.364,261.792z M302.756,264.968
				c-1.927,0.393-2.577,1.352-0.726,2.536c0.929-0.237,0.929-0.237,1.448-0.647C303.329,266.197,303.634,265.002,302.756,264.968z
				 M303.52,231.705c-0.249-0.372-0.508-0.736-0.772-1.098c-0.294-0.099-0.587-0.198-0.896-0.302
				C299.416,232.12,302.929,233.902,303.52,231.705z M262.711,250.458c-1.325,1.012-1.347,2.698,0.726,2.48
				C264.971,252.447,264.235,250.392,262.711,250.458z M284.962,272.709c0.432-0.577,0.428-1.128,0.23-1.693
				c-0.676-0.105-1.276-0.198-1.869-0.29C281.896,271.98,283.363,273.708,284.962,272.709z M277.657,238.387
				c1.603,0.655,1.843-1.107,1.222-2.12C277.259,235.604,275.631,237.944,277.657,238.387z M265.378,261.52c0.451,0,0.891,0,1.324,0
				c1.936-1.71-2.064-3.651-2.074-1.155C264.974,260.672,265.217,261.06,265.378,261.52z M273.497,263.342
				c0.438,0.25,0.584,0.546,0.818,0.894c0.581,0.393,1.64-0.208,1.914-0.734C276.693,261.376,274.007,261.599,273.497,263.342z
				 M288.578,286.204c-0.708-0.551-1.546-1.956-2.412-1.085c-0.688,0.998-0.181,1.843,0.552,2.122
				c0.289,0.024,0.578,0.037,0.867,0.048C288.012,287.174,288.399,286.841,288.578,286.204z M285.904,212.397
				c1.32,0.933,2.108,0.031,2.609-1.168C287.15,209.415,285.402,210.951,285.904,212.397z M272.497,218.99
				c-0.465,0.163-0.849,0.238-1.371,0.328c-0.661,1.348-0.469,1.755,1.028,2.269C273.155,221.206,273.738,219.485,272.497,218.99z
				 M253.972,276.194c-0.64,0.428-1.415,0.648-1.468,1.488c0.208,0.36,0.403,0.698,0.622,1.077
				C255.246,279.171,255.815,277.092,253.972,276.194z M265.88,244.533c1.96-0.443,1.352-3.073-0.398-2.639
				C264.426,242.76,264.559,244.083,265.88,244.533z M306.353,262.71c-0.245-0.313-0.443-0.565-0.709-0.904
				c-0.428,0.033-0.793,0.061-1.19,0.091c-0.213,0.554-0.41,1.068-0.583,1.518C304.833,265.178,306.279,264.313,306.353,262.71z
				 M308.031,270.994c-1.791-0.341-1.272,2.2,0.193,2.27c0.042-0.029,0.08-0.057,0.121-0.085c0.317-0.702,0.606-1.413,0.862-2.134
				C309.036,270.944,308.72,270.976,308.031,270.994z M255.53,280.625c0.999,2.31,2.947,0.776,2.518-1.026
				c-0.574-0.067-1.174-0.138-1.808-0.212C255.953,279.795,255.737,280.172,255.53,280.625z M286.876,273.444
				c-1.244,0.654-1.342,0.973-0.678,2.167c0.298,0.096,0.607,0.197,0.894,0.29c0.791-0.362,0.791-0.362,1.347-0.985
				C288.488,273.842,287.544,273.773,286.876,273.444z M299.816,273.606c-1.418-0.092-2.773,1.213-1.381,2.195
				C300.217,276.393,301.25,274.9,299.816,273.606z M267.777,229.099c0.412,1.273,1.643,1.452,2.299,0.224
				C271.019,227.346,267.723,227.044,267.777,229.099z M272.95,255.761c0.856-0.993,0.69-2.102-0.39-2.03
				c-0.672,0.352-1.735-0.132-1.94,0.791C271.092,255.725,271.596,256.072,272.95,255.761z M278.108,259.026
				c-1.025,0.151-1.112,0.865-1.32,1.534c0.116,1.086,2.035,1.624,2.151,0.275C279.49,259.884,279.053,259.3,278.108,259.026z
				 M297.1,248.817c0.095-0.64-0.677-1.301-1.358-1.169C292.722,248.165,296.946,252.067,297.1,248.817z M279.281,248.58
				c0.204-1.272-2.568-1.601-2.188-0.035C276.931,250.42,279.342,250.679,279.281,248.58z M261.346,248.729
				c-0.44-0.402-0.653-0.784-1.158-1.007c-0.905,0.124-1.269,0.685-1.588,1.299C258.744,250.599,261.563,250.305,261.346,248.729z
				 M288.305,239.627c-0.689-0.392-1.538-0.96-1.952-0.008c-0.141,0.513-0.94,0.439-0.775,1.056
				C286.369,241.97,288.893,241.635,288.305,239.627z M291.759,280.489c0.475,1.146,1.275,1.938,2.31,0.742
				c0.001-0.514,0.104-0.988-0.11-1.464c-0.369-0.228-0.743-0.46-1.097-0.678C292.174,279.598,292.174,279.598,291.759,280.489z
				 M263.107,279.17c-0.459,0.264-0.884,0.506-1.282,0.734C261.036,283.498,266.732,280.537,263.107,279.17z M300.291,268.384
				c-0.811-0.917-2.743-0.404-2.672,0.744C297.997,270.376,301.034,270.546,300.291,268.384z M275.908,206.937
				c0.79-1.322-0.081-2.526-1.113-2.292l-0.722,1.903C274.474,206.917,275.19,207.034,275.908,206.937z M269.515,247.438
				c0.331-0.621,0.627-1.178,0.933-1.752c-0.421-0.499-0.825-0.935-1.592-1.025c-0.356,0.415-0.739,0.861-1.077,1.253
				C267.942,246.86,268.656,247.111,269.515,247.438z M258.794,283.727c0.239,0.319,0.406,0.541,0.557,0.742
				c0.935,0.369,1.565-0.377,2.039-1.02C261.777,281.529,258.763,281.981,258.794,283.727z M286.094,251.055
				c-0.53,1.957,1.803,2.625,2.475,0.706C287.634,250.576,287.539,249.776,286.094,251.055z M309.605,248.652
				c-0.724-1.282-3.171-1.118-2.68,0.583C307.77,250.566,309.297,250.061,309.605,248.652z M271.833,244.414
				c1.696,0.819,2.591-2.933-0.396-2.202c-0.228,0.57-0.417,0.912-0.731,1.416C271.111,243.925,271.575,243.99,271.833,244.414z
				 M278.275,213.018c-1.242,0.208-1.21,1.145-1.51,1.885c0.624,0.666,1.371,0.492,2.062,0.46c0.237-0.329,0.439-0.611,0.65-0.906
				C279.312,213.819,278.881,213.371,278.275,213.018z M293.033,273.376c-1.276,0.468-1.219,1.439-0.579,2.434
				c1.121,0.177,1.121,0.177,2.128-1.053C294.185,274.245,294,273.536,293.033,273.376z M286.852,279.311
				c-1.344,0.048-1.386,2.51,0.165,2.44C288.841,281.661,288.466,279.384,286.852,279.311z M250.938,273.45
				c-0.379,0.314-0.832,0.69-1.308,1.085c0.175,1.486,2.502,2.092,2.761,0.384C251.867,274.526,252.068,273.52,250.938,273.45z
				 M273.459,237.56c-0.093-1.145-1.482-1.729-2.361-0.95C269.935,238.55,272.429,239.298,273.459,237.56z M305.783,235.594
				c-0.353-0.699-0.73-1.384-1.124-2.06C302.945,234.143,304.29,236.275,305.783,235.594z M286.678,235.704
				c3.419-0.125,0.717-4.127-0.992-1.33C285.8,235.033,286.259,235.32,286.678,235.704z M305.825,252.863
				c0.163-0.395,0.343-0.829,0.55-1.331C305.131,248.529,301.792,253.599,305.825,252.863z M271.921,270.702
				c-1.426,0.355-1.594,2.264,0.164,2.352C273.745,272.35,273.963,270.86,271.921,270.702z M266.516,272.94
				c1.424-0.341,0.448-2.291-0.667-2.261C264.011,270.841,264.755,273.586,266.516,272.94z M284.342,215.394
				c2.006-0.446,0.481-2.666-1.145-2.109C282.362,214.561,282.782,215.724,284.342,215.394z M284.942,207.63
				c-1.26-0.598-1.579,0.335-2.096,1.032C283.092,211.049,286.367,209.477,284.942,207.63z M277.709,201.868
				c-0.566,1.116-1.207,2.258,0.526,2.535c0.742-1.034,1.701-1.343,0.893-2.6C278.568,201.784,278.078,201.671,277.709,201.868z
				 M274.386,273.587c-0.985,0.557-0.786,2.172,0.486,2.105C277.249,275.995,275.912,272.448,274.386,273.587z M303.339,277.179
				c-0.648-1.692-4.739-0.104-1.2,1.989c0.273-0.318,0.626-0.559,0.589-0.719C302.48,277.769,303.325,277.736,303.339,277.179z
				 M307.087,255.497c0.612,0.062,1.091,0.53,1.681,0.247c0.287-0.46,0.555-0.891,0.851-1.363c-0.121-0.202-0.258-0.434-0.394-0.662
				c-0.711-0.039-1.36-0.063-1.928,0.004C306.762,254.341,307.162,254.908,307.087,255.497z M258.251,268.503
				c-0.76-0.768-2.462-0.583-2.416,0.711C255.921,271.376,258.954,269.954,258.251,268.503z M283.966,241.72
				c-0.729,0.259-1.115,0.784-1.387,1.473C283.692,245.995,286.438,243.087,283.966,241.72z M295.378,230.529
				c-0.723,0.172-0.735,1.341-0.069,1.554c0.453,0.146,0.297,0.502,0.488,0.709c1.281,0.089,1.293,0.079,1.754-1.461
				C296.959,230.911,296.141,230.376,295.378,230.529z M273.794,217.364c0.194,0.366,0.362,0.684,0.576,1.091
				C278.407,219.171,275.227,213.871,273.794,217.364z M266.398,255.765c0.682-0.321,0.568-0.961,0.738-1.627
				C264.025,252.024,263.988,257.084,266.398,255.765z M263.537,264.62c0.247-0.533,0.44-0.949,0.634-1.369
				c-0.779-2.248-1.285-1.249-2.475-0.013C261.991,263.979,262.462,264.958,263.537,264.62z M301.811,250.003
				c0.583-0.054,0.552-0.734,1.091-0.485c1.707,0.009-0.137-2.048-1.128-1.995C300.503,248.223,300.833,249.254,301.811,250.003z
				 M268.323,264.341c0.414-0.064,0.854-0.134,1.256-0.198c0.305-0.444,0.584-0.85,0.884-1.286c-0.458-0.37-0.856-0.693-1.293-1.046
				C267.98,261.967,267.395,263.587,268.323,264.341z M300.737,254.796c0.887,1.279,1.868,1.211,2.916,0.169
				C302.953,253.281,301.438,252.908,300.737,254.796z M289.789,276.091c-0.871,0.942-1.1,2.933,0.664,2.892
				c0.363-0.515,0.748-1.059,1.101-1.559C291.249,276.579,290.336,276.719,289.789,276.091z M291.087,209.041
				c0.183-1.833-1.937-1.952-2.244-0.238C288.637,210.031,291.24,210.709,291.087,209.041z M270.804,248.125
				c-0.166,0.82,0.127,1.447,0.866,1.932c0.756-0.231,1.61-0.113,1.758-1.085C272.527,247.943,272.143,247.309,270.804,248.125z
				 M261.416,243.182c-0.052-0.696-0.379-1.078-0.789-1.205l-0.811,2.137C260.51,244.228,261.308,243.938,261.416,243.182z
				 M266.478,276.464c-0.427,0.35-1.106,0.001-1.602,0.463c-0.029,1.131,0.508,2.231,1.898,1.828
				C267.499,278.155,267.479,276.792,266.478,276.464z M310.984,262.211c-0.191-0.009-0.4-0.007-0.634,0.012
				c-0.221,0.415-0.444,0.831-0.699,1.309c0.397,0.359,0.782,0.549,1.138,0.637C310.871,263.518,310.936,262.866,310.984,262.211z
				 M255.479,274.757c0.586,1.068,2.362,1.326,2.707-0.018C258.334,272.997,255.713,273.315,255.479,274.757z M284.381,224.812
				c-1.357,0.271-1.402,0.681-1.385,1.913c0.625,0.202,1.199,0.564,1.981,0.283C285.59,225.907,285.796,225.394,284.381,224.812z
				 M282.926,254.025c-0.71,1.173,1.017,2.734,2.062,1.655C285.527,254.424,284.033,252.958,282.926,254.025z M295.615,244.49
				c3.567,0.036,1.136-4.208-0.752-1.357C295.08,243.611,295.262,244.086,295.615,244.49z M269.752,285.485
				c-0.159-0.143-0.354-0.29-0.604-0.452c-0.437,0.202-1.29,0.312-1.039,0.991c-0.004,0.068-0.033,0.142-0.074,0.219
				C268.62,286.017,269.191,285.762,269.752,285.485z M267.42,248.591c-1.276-0.721-1.276-0.721-2.297-0.51
				c-0.61,0.56-0.274,1.101,0.035,1.771C266.248,249.843,267.897,250.169,267.42,248.591z M276.818,277.342c0,0.251,0,0.522,0,0.779
				C280.242,280.544,280.193,274.702,276.818,277.342z M254.082,270.451c-0.355,0.217-0.694,0.426-1.116,0.683
				C252.585,274.734,257.524,272.294,254.082,270.451z M298.319,241.132c1.813,0.695,1.912-0.302,1.784-1.685
				c-0.436-0.339-0.793-0.596-1.301-0.538c-0.336,0.417-0.659,0.818-0.995,1.237C297.991,240.502,298.154,240.816,298.319,241.132z
				 M286.535,269.813c0.652,0.841,1.798,0.104,1.781-0.691C288.347,266.581,284.367,268.271,286.535,269.813z M260.756,265.232
				c-0.915-0.184-1.56-0.011-1.734,0.935c0.376,0.624,0.376,0.624,0.29,1.29c0.976,0.315,1.495-0.395,2.102-0.77
				C261.581,265.947,261.054,265.619,260.756,265.232z M277.102,265.261c-1.079,1.542,1.349,2.984,2.2,1.113
				C279.229,265.152,278.192,264.511,277.102,265.261z M275.89,227.668c-1.371-0.409-1.824,0.597-2.088,1.684
				c0.443,0.64,2.4,1.081,2.128-0.15C276.303,228.647,276.153,228.266,275.89,227.668z M282.898,230.993
				c0.163,0.519,0.325,1.034,0.476,1.514c0.349,0.216,0.654,0.407,0.928,0.578c1.108-0.368,1.071-1.139,0.938-1.99
				C284.505,230.716,283.786,230.337,282.898,230.993z M271.504,224.743c-0.391,0.426-0.596,0.885-0.761,1.367
				C272.514,228.917,274.876,225.047,271.504,224.743z M290.931,267.255c1.324-1.056,0.096-2.043-1.177-2.236
				c-0.751,0.318-0.712,0.974-0.775,1.625C289.503,267.151,290.091,267.449,290.931,267.255z M264.909,265.887
				c-0.392,2.33,2.968,1.839,2.246-0.338C266.047,264.993,265.353,265.048,264.909,265.887z M301.842,259.411
				c-0.635-0.002-1.007,0.298-1.087,0.882C302.854,263.657,304.938,258.953,301.842,259.411z M290.748,244.302
				c0.334-0.382,0.684-0.744,0.835-1.38C289.201,240.194,287.676,244.254,290.748,244.302z M263.06,273.567
				c-0.862,0.243-1.47,0.748-1.573,1.723C263.188,276.72,265.628,274.374,263.06,273.567z M282.822,276.99
				c0.183,1.792,2.144,2.568,2.677,0.489C284.753,276.493,283.857,276.075,282.822,276.99z M276.852,271.961
				c0.45,0.572,0.72,0.914,1.008,1.28c0.939-0.209,0.939-0.209,1.34-1.579C278.824,270.598,276.807,270.647,276.852,271.961z
				 M281.322,285.028c-0.482,0.053-0.851,0.241-1.105,0.484c0.637,0.306,1.298,0.567,1.974,0.795
				C282.214,285.821,281.957,285.296,281.322,285.028z M291.874,239.973c0.258,2.055,2.397,1.989,2.468-0.186
				C293.509,238.927,292.529,238.939,291.874,239.973z M275.314,244.669c-1.679,0.307-1.199,0.72-1.384,1.83
				c0.359,0.522,0.907,0.494,1.36,0.697C276.469,246.685,276.441,245.113,275.314,244.669z M261.138,254.062
				c-0.277-0.503-0.902-0.319-1.265-0.642C256.606,254.566,261.549,257.693,261.138,254.062z M257.574,252.71
				c1.389-0.578,0.721-1.603-0.291-1.922l-0.693,1.827C256.902,252.754,257.254,252.806,257.574,252.71z M289.837,213.051
				c-0.627,0.303-0.835,0.769-1.027,1.34C289.743,217.082,293.156,213.67,289.837,213.051z M304,246.644
				c0.372,0.213,0.999-0.036,1.286,0.482c1.481,0.03,1.089-1.572,0.264-2.237c-0.568,0.235-1.256-0.123-1.747,0.452
				C303.871,245.778,303.799,246.215,304,246.644z M291.555,231.971c-0.125-0.327-0.25-0.651-0.386-1.004
				C286.97,229.449,289.641,234.943,291.555,231.971z M246.1,280.255l-0.203,0.535c0.089,0.105,0.193,0.196,0.285,0.299
				c0.096-0.167,0.172-0.367,0.214-0.612C246.288,280.406,246.192,280.332,246.1,280.255z M281.167,227.627
				c-2.098,0.762-1.733,0.4-0.764,2.044c1.072,0.099,1.072,0.099,1.808-0.309C282.339,228.09,282.339,228.09,281.167,227.627z
				 M281.055,206.826c1.272-0.034,1.757-1.997,0.13-2.222C279.767,204.251,279.091,207.2,281.055,206.826z M306.012,241.157
				c0.817-1.234,0.226-2.563-1.37-1.785c-0.909,0.25-0.149,1.145-0.43,1.715C305.108,241.579,305.108,241.579,306.012,241.157z
				 M309.889,268.812c0.029-0.107,0.068-0.211,0.096-0.318C309.934,268.591,309.901,268.698,309.889,268.812z M280.842,233.391
				c-1.339,0.389-1.194,1.883,0.116,2.271C282.736,235.371,282.59,233.347,280.842,233.391z M300.251,251.196
				c-0.952-0.847-2.17-0.189-2.614,0.827C298.335,253.355,300.78,253.056,300.251,251.196z M310.737,253.036
				c-0.07-0.593-0.156-1.183-0.244-1.773C309.913,251.893,309.857,252.698,310.737,253.036z M291.924,223.756
				c0.268,0.228,0.569,0.483,0.884,0.751c2.301-0.691,1.523-3.059-0.765-2.18C292.006,222.78,291.967,223.233,291.924,223.756z
				 M277.633,230.602c-2.142,1.332,0.287,2.642,1.851,1.652C279.453,231.59,278.41,230.403,277.633,230.602z M267.454,237.788
				c-0.487-0.468-0.595-1.151-1.361-1.318c-1.652,0.377-1.661,1.898-0.015,2.304C266.689,238.635,267.04,238.26,267.454,237.788z
				 M283.151,219.356c-0.112,0.314-0.206,0.576-0.32,0.894c0.452,0.692,1.149,0.857,1.8,1.123
				C286.25,220.403,284.724,218.189,283.151,219.356z M268.984,270.415c0.666-0.26,0.817-0.838,1.207-1.294
				c-0.208-1.582-3.444-1.282-2.424,0.224C268.307,269.575,268.504,270.12,268.984,270.415z M272.299,282.202
				c-2.004,0.557-1.587,1.926-0.621,2.199c0.578-0.371,1.133-0.77,1.666-1.198C272.951,282.569,272.884,282.529,272.299,282.202z
				 M299.679,281.589c0.147-0.619,0.288-1.209,0.435-1.825c-0.533-0.466-1.057-0.52-1.641-0.503
				C297.149,280.32,298.111,281.638,299.679,281.589z M297.308,282.876c-0.364-0.975-2.296-0.889-2.21,0.352
				C295.212,285.481,297.459,284.252,297.308,282.876z M261.387,271.69c-0.564-0.974-1.428-0.811-2.361-0.68
				C258.524,273.402,260.432,273.738,261.387,271.69z M281.038,195.425c0.74,0.167,1.103-0.133,1.188-0.564
				c-0.706-0.339-1.446-0.605-2.219-0.788C280.011,194.642,280.41,195.285,281.038,195.425z M290.417,227.287
				c0.269-0.312,0.551-0.639,0.825-0.957c-0.223-0.568-0.071-1.268-0.896-1.522c-0.257,0.077-0.568,0.17-0.904,0.272
				C288.844,225.995,288.94,227.65,290.417,227.287z M295.809,224.973c-1.582-0.084-0.971,2.331,0.355,2.152
				C297.388,226.854,297.577,224.16,295.809,224.973z M281.366,256.377c-0.465,0.114-0.86,0.211-1.23,0.302
				c-0.132,0.384-0.247,0.718-0.35,1.017C280.676,259.641,284.099,257.377,281.366,256.377z M267.678,225.846
				c-0.236-0.185-0.49-0.349-0.746-0.481l-0.613,1.614C266.824,226.771,267.337,226.334,267.678,225.846z M271.095,214.822
				c-0.152,0.509,0.568,0.6,0.937,0.817c2.175-0.752,0.864-2.919-0.546-2.271l-0.405,1.066
				C271.144,214.545,271.174,214.664,271.095,214.822z M281.414,275.9c0.553-0.456,1.173-0.819,0.671-1.531
				c-0.139-0.472-0.77-1.215-1.202-0.611c-0.211,0.688-1.197,0.51-1.296,1.276C279.937,275.822,280.75,275.676,281.414,275.9z
				 M307.062,266.064c-0.003,3.183,4.393-0.914,1.202-0.891C307.415,265.175,307.19,265.348,307.062,266.064z M306.085,269.56
				c0.359-1.344-0.511-1.607-1.707-1.579c-0.692,0.508-0.446,1.184-0.615,1.804C304.625,270.111,305.348,269.933,306.085,269.56z
				 M263.266,267.869c-0.708,0.514-1.465,0.468-1.7,1.387C263.175,271.279,265.672,268.815,263.266,267.869z M288.972,220.08
				c0.386,0.45,0.717,0.835,1.093,1.274c0.744-0.005,1.136-0.671,1.273-1.348C290.794,218.548,289.167,218.34,288.972,220.08z
				 M264.41,234.464c-0.236-0.091-0.488-0.191-0.735-0.288c-0.006-0.059-0.013-0.118-0.019-0.177l-0.632,1.666
				C263.589,235.612,264.154,235.177,264.41,234.464z M279.227,225.404c-0.399-0.507-1.12-0.702-1.705-0.6
				c-0.332,0.453-0.451,0.981-0.979,1.368C277.699,227.489,279.189,226.977,279.227,225.404z M280.394,222.008
				c-0.117,0.311-0.228,0.604-0.394,1.048C281.576,226.581,283.885,220.666,280.394,222.008z M288.54,205.565
				c-1.316-1.911-4.103,0.451-1.6,1.372C287.934,206.528,287.934,206.528,288.54,205.565z M263.583,247.118
				c0.261-0.296,0.524-0.593,0.8-0.906C263.924,243.055,259.31,247.712,263.583,247.118z M255.759,256.921
				c-0.29,1.302,0.99,2.706,2.141,1.412c0-0.45,0-0.912,0-1.402C257.172,256.73,256.494,256.745,255.759,256.921z M284.571,201.923
				c-1.229-0.538-1.505,0.324-1.496,1.382C284.101,205.316,286.407,202.777,284.571,201.923z M282.813,283.352
				c0.693,1.284,1.116,1.411,2.352,0.735C285.55,282.493,283.507,281.672,282.813,283.352z M302.183,273.049
				c1.259-0.623,1.448-1.247,0.535-2.284c-0.401-0.362-1.505,0.16-1.793,0.578C301.401,272.003,301.185,272.856,302.183,273.049z
				 M295.707,267.515c1.005-0.101,1.644-0.496,1.852-1.419c-0.454-0.587-0.611-1.502-1.649-0.944
				c-0.14,1.059-0.14,1.059-1.022,1.589C295.184,267.021,295.468,267.289,295.707,267.515z M269.084,276.143
				c1.245-1.038,1.245-1.038,0.652-2.091c-1.462-0.279-2.565,0.341-1.619,1.795C268.439,275.945,268.784,276.051,269.084,276.143z
				 M273.859,268.304c0.282,0.569-0.018,1.195,0.416,1.818C277.185,270.283,276.176,266.627,273.859,268.304z M272.407,232.751
				c0.871-1.154,0.884-1.212,0.417-1.993c-0.427,0-0.876,0-1.395,0c-0.253,0.364-0.455,0.656-0.639,0.92
				C271.245,232.921,271.245,232.921,272.407,232.751z M279.218,208.611c-0.308-0.549-0.933-0.711-1.423-1.078
				c-0.537,0.303-0.911,0.698-1.268,1.175c0.227,0.308,0.433,0.588,0.663,0.9C278.516,209.723,279.005,209.787,279.218,208.611z
				 M279.865,262.717c-0.134,1.067,0.487,1.108,1.153,1.576C283.665,264.727,281.672,260.967,279.865,262.717z M262.86,258.655
				c0.99-0.076,1.2-0.724,1.305-1.468c-0.391-1.427-1.893-0.648-2.606,0.234C261.965,257.916,262.398,258.319,262.86,258.655z
				 M270.52,280.481c-0.398-0.504-0.778-0.902-1.328-1.208c-0.948,0.398-0.948,0.398-1.394,1.008
				c0.211,0.368,0.422,0.735,0.622,1.083C269.285,281.552,270.075,281.147,270.52,280.481z M279.273,283.391
				c-0.243-0.513-0.46-0.971-0.679-1.435c-0.856,0.065-1.546,0.829-1.514,1.574c0.358,0.293,0.731,0.568,1.115,0.827
				C278.622,284.126,278.943,283.754,279.273,283.391z M269.894,217.946c0.129-0.471,0.24-0.875,0.379-1.386l-0.552,1.454
				C269.781,217.989,269.832,217.976,269.894,217.946z M274.853,221.768c-0.361,0.316-0.718,0.629-1.108,0.971
				c0.302,0.506,0.52,0.871,0.727,1.22c1.451,0.165,1.577-0.158,1.648-1.384C275.771,222.247,275.466,221.806,274.853,221.768z
				 M280.022,216.565c0.474,0.621-0.058,1.605,1.009,1.889c0.94-0.37,0.94-0.37,1.483-1.316
				C282.004,216.185,281.029,216.167,280.022,216.565z M252.795,265.987c-0.556,1.473,1.886,1.711,2.37,0.436
				C255.029,264.97,253.58,264.856,252.795,265.987z M282.302,269.097c-0.579-1.124-0.579-1.124-1.882-0.936
				C279.23,269.927,281.414,271.118,282.302,269.097z M288.854,283.64c0.531,1.097,1.921,0.663,2.453-0.216
				c-0.125-0.318-0.25-0.64-0.377-0.963c-0.514-0.059-0.695-0.115-1.258-0.264C289.318,282.683,289.06,283.129,288.854,283.64z
				 M293.319,285.639c-0.088-0.285-0.414-0.396-0.717-0.606c-0.651,0.413-0.686,1.266-0.333,1.894
				c0.585-0.117,1.163-0.263,1.732-0.435C293.971,286.091,293.761,285.719,293.319,285.639z M264.831,282.687
				c0.4,1.068,0.631,1.955,2.031,1.563C267.979,282.643,266.262,281.738,264.831,282.687z M291.55,272.058
				c-0.305-0.444-0.722-0.814-1.28-1.18c-0.627,0.264-1.003,0.659-1.358,1.137C289.706,273.166,290.871,273.565,291.55,272.058z
				 M273.183,266.394c-0.639-0.503-0.181-1.206-0.797-1.665c-0.675,0.234-1.386,0.366-1.593,1.252
				c0.46,0.067,0.359,0.489,0.479,0.776C271.856,266.933,273.502,267.393,273.183,266.394z M255.892,262.267
				c0.213,1.07,1.17,2.876,2.272,1.509c0.225-0.477-0.726-0.728-0.277-1.264C257.603,261.846,256.628,261.999,255.892,262.267z
				 M272.266,276.447c-1.76,0.072-1.315,1.788-0.312,2.529c0.602-0.045,0.488-0.522,0.664-0.8c0.185-0.294,0.58-0.46,0.613-0.87
				C272.948,276.94,272.658,276.615,272.266,276.447z M299.922,227.886c-0.906-0.057-1.724,0.255-1.971,1.073
				c0.464,0.601,1.1,0.771,1.707,1.016c0.336-0.398,0.642-0.76,0.972-1.15C300.374,228.486,300.138,228.173,299.922,227.886z
				 M293.147,218.266c-0.111-0.691-0.164-1.394-0.194-2.102c-0.171-0.036-0.343-0.071-0.551-0.094
				c0.126,0.555,0.068,0.765-0.242,1.167C292.329,217.96,292.731,218.241,293.147,218.266z M285.049,260.916
				c-0.036-0.5-0.065-0.927-0.099-1.401c-0.944-0.655-1.679,0.344-2.208,1.04C283.584,261.784,283.939,261.644,285.049,260.916z
				 M307.047,260.319c0.621,0.713,2.034,0.981,2.58,0.325C309.454,259.234,307.588,258.385,307.047,260.319z M294.331,245.765
				c-0.95-1.107-2.283-1.218-2.565,0.389C292.66,247.302,293.832,247.124,294.331,245.765z M269.793,241.055
				c0.417-1.401-0.499-2.613-1.672-1.416C267.074,240.776,268.749,241.552,269.793,241.055z M248.382,278.765
				c-0.065-0.521,0.251-0.786,0.854-0.918c-0.307-1.199-1.127-1.351-1.887-0.883l-0.428,1.127
				C247.188,278.545,247.649,278.767,248.382,278.765z M292.235,228.075c-0.333,0.601,0.289,1.019,0.098,1.55
				C295.075,230.845,294.85,227.134,292.235,228.075z M259.181,260.926c1.506,1.041,2.495,0.121,1.639-1.486
				C259.851,259.203,258.365,259.935,259.181,260.926z M303.333,243.717c-0.346-1.634-1.486-2.606-2.201-0.512
				c0.172,0.283,0.335,0.551,0.509,0.839C302.247,244.058,302.879,244.367,303.333,243.717z M300.347,262.571
				c-1.021,0.629-2.28-0.606-2.691,0.504C298.578,264.997,300.204,264.77,300.347,262.571z M273.788,280.117
				c0.202,0.981,0.631,1.252,1.881,0.99c0.111-0.424,0.208-0.797,0.302-1.156C275.062,278.978,274.739,279.006,273.788,280.117z
				 M306.369,274.808c-0.241-0.433-0.449-0.809-0.654-1.175C303.322,273.267,303.875,276.953,306.369,274.808z M284.244,236.535
				c-0.398,0.248-0.734,0.46-1.005,0.628c-0.027,0.428-0.047,0.767-0.072,1.157c0.593,0,1.16,0,1.74,0
				c0.215-0.296,0.419-0.576,0.682-0.941C285.059,237.046,284.652,236.791,284.244,236.535z M281.748,201.031
				c0.19-0.467,0.357-0.878,0.51-1.251c-0.353-0.511-0.813-0.742-1.478-0.9C279.345,199.695,280.596,200.762,281.748,201.031z
				 M286.384,222.417c-1.275,1.963,1.231,1.611,2.136,0.672C288.285,222.346,288.03,222.265,286.384,222.417z M278.553,196.305
				c-0.188,0-0.385,0-0.592,0l-0.565,1.49c0.524,0.035,1.024,0.069,1.522,0.103C279.132,197.263,279.041,196.765,278.553,196.305z
				 M298.985,233.663c-0.985,1.153-0.689,1.444,0.451,1.794c0.435-0.172,0.894-0.349,1.152-0.88
				C300.255,233.821,299.589,233.786,298.985,233.663z M286.182,228.265c-0.623,1.212,0.822,1.337,1.801,1.415
				C289.056,228.325,287.127,227.977,286.182,228.265z M276.358,230.364c-0.153,0.056-0.049,0.139-0.007,0.236
				C276.518,230.553,276.395,230.466,276.358,230.364z"/>
			<g>
				<path style="fill:#421B36;" d="M289,114.155c7.643-0.307,14.893-0.059,22.32,2.038c6.828,1.928,13.295,4.93,19.63,8.083
					c0.639,0.318,1.203-0.629,0.563-0.963c-12.744-6.654-27.934-13.239-42.572-9.59C288.703,113.782,288.75,114.165,289,114.155
					L289,114.155z"/>
			</g>
		</g>
		<path style="fill:#8380FF;" d="M294.971,344.933c-0.84-25.47-7.87-43.24-7.87-43.24s-4.04-1.44-9.75-3.45
			c-13.88-4.88-37.66-13.13-37.4-12.25c1.449,4.857-1.236,8.152-5.828,9.645l2.733-11.938
			c-14.593-13.656-33.204-22.848-52.811-26.082c-8.887-1.466-18.433-1.632-26.417,2.586c-8.157,4.309-13.508,12.543-17.836,20.768
			c-4.608,8.755,2.35,26.061,11.165,32.271c-0.478,0.909-0.7,1.449-0.7,1.449l27.537,114.636c25.26,11.04,86.026,4.447,96.906-2.803
			C282.631,421.234,296.081,378.143,294.971,344.933z"/>
		<path style="fill:#A0D2F4;" d="M169.064,392.981c0.034,10.727,118.045,2.858,122.486-9.695c1.304-3.687,3.912-29.762,3.032-29.001
			c-38.391,11.428-76.834,15.55-117.703,9.279l-10.425,21.429L169.064,392.981z"/>
		<g>
			<path style="fill:#FFAE7A;" d="M211.769,428.074c0,0,15.934-6.841,21.108-8.734c6.722-2.459,16.72-6.142,22.357-4.369
				c5.637,1.773,19.776,14.153,14.376,17.833c-5.4,3.68-14.059-6.482-14.507-6.834c-1.815-1.43-12.216-2.83-3.914,2.698
				c3.607,2.402,15.551,13.672,12.561,20.877c-1.465,3.531-6.173,2.928-6.173,2.928s-0.117,4.042-3.975,4.733
				c-3.857,0.69-5.561-2.443-5.561-2.443s-2.083,6.948-9.133,1.087c-7.323-6.088-10.915-9.025-10.915-9.025
				s-3.476,2.002-10.334,3.766c-9.793,2.519-15.022-2.814-15.022-2.814l-7.7-1.122c-1.227-8.22,0.916-15.364,9.297-20.516
				L211.769,428.074z"/>
			<g>
				<path style="fill:#421B36;" d="M233.123,436.778c3.283,1.81,6.014,4.922,8.425,7.728c1.411,1.642,2.75,3.353,3.941,5.162
					c0.902,1.371,1.807,2.831,2.255,4.424c0.217,0.773,1.424,0.445,1.205-0.332c-0.459-1.63-1.352-3.14-2.268-4.549
					c-1.233-1.896-2.63-3.69-4.097-5.409c-1.468-1.721-3.021-3.376-4.682-4.911c-1.272-1.175-2.625-2.35-4.148-3.191
					C233.048,435.31,232.417,436.389,233.123,436.778L233.123,436.778z"/>
			</g>
			<g>
				<path style="fill:#421B36;" d="M238.172,429.36c4.9,1.948,8.677,6.594,11.676,10.745c2.789,3.861,5.4,8.076,7.126,12.533
					c0.287,0.742,1.496,0.42,1.205-0.332c-1.846-4.767-4.616-9.267-7.642-13.366c-3.147-4.262-6.983-8.777-12.033-10.785
					C237.757,427.857,237.433,429.066,238.172,429.36L238.172,429.36z"/>
			</g>
			<g>
				<path style="fill:#421B36;" d="M245.002,448c-2.052,0.823-3.261,3-2.685,5.174c0.595,2.246,2.863,3.56,5.11,3.124
					c0.789-0.153,0.455-1.358-0.332-1.205c-1.589,0.308-3.16-0.697-3.573-2.251c-0.389-1.463,0.396-3.069,1.812-3.637
					c0.313-0.125,0.533-0.417,0.436-0.769C245.689,448.139,245.317,447.874,245.002,448L245.002,448z"/>
			</g>
			<g>
				<path style="fill:#421B36;" d="M254.87,446.2c-2.206,0.632-3.879,2.832-3.752,5.154c0.127,2.306,1.947,4.376,4.23,4.766
					c0.787,0.135,1.125-1.07,0.332-1.205c-1.721-0.294-3.212-1.773-3.312-3.561c-0.099-1.772,1.138-3.463,2.834-3.949
					C255.974,447.184,255.646,445.978,254.87,446.2L254.87,446.2z"/>
			</g>
			<g>
				<path style="fill:#421B36;" d="M262.347,440.663c-2.113,0.823-3.644,3.029-3.405,5.338c0.232,2.237,1.959,4.187,4.178,4.625
					c0.786,0.155,1.122-1.049,0.332-1.205c-1.657-0.327-3.056-1.715-3.261-3.42c-0.206-1.714,0.882-3.508,2.487-4.133
					C263.421,441.58,263.098,440.37,262.347,440.663L262.347,440.663z"/>
			</g>
			<g>
				<path style="fill:#421B36;" d="M267.088,424.064c-1.834,0.951-2.888,3.091-2.539,5.123c0.336,1.954,2.044,3.596,3.997,3.887
					c0.333,0.05,0.672-0.083,0.769-0.436c0.081-0.295-0.101-0.719-0.436-0.769c-1.522-0.227-2.807-1.376-3.104-2.905
					c-0.298-1.53,0.595-3.12,1.945-3.82C268.434,424.773,267.802,423.694,267.088,424.064L267.088,424.064z"/>
			</g>
		</g>
		<g>
			<path style="fill:#421B36;" d="M295.525,348.76c0.868-17.832-1.907-34.27-14.725-47.788c-0.738-0.779-1.854,0.371-1.167,1.167
				c7.089,8.198,12.051,17.322,13.965,28.057c1.099,6.164,1.064,12.335,0.961,18.565
				C294.549,349.384,295.495,349.378,295.525,348.76L295.525,348.76z"/>
		</g>
		<g>
			<g>
				<g>
					<g>
						<path style="fill:#421B36;" d="M282.175,217.564c7.97-4.855,9.955-16.465,5.795-24.819
							c-4.16-8.354-13.032-13.561-22.145-15.574c-9.113-2.013-18.58-1.28-27.882-0.537l-25.352,93.684
							c9.506,5.776,20.404,9.244,31.501,10.023c3.682,0.259,7.509,0.2,10.882-1.299c3.372-1.499,6.191-4.743,6.203-8.434
							c3.057,4.931,9.46,7.518,15.085,6.096c5.625-1.422,10.029-6.741,10.376-12.532c1.591,1.761,3.227,3.557,5.323,4.67
							c2.096,1.113,4.78,1.425,6.796,0.174c2.479-1.537,3.177-4.795,3.391-7.704C303.37,244.634,295.578,227.564,282.175,217.564z"
							/>
						<path style="fill:#FFAE7A;" d="M214.984,196.25c15.018-20.185,46.877-16.899,57.525,5.895
							c3.368,7.209,4.718,16.716,4.209,29.366c-1.419,35.294-31.301,34.738-31.301,34.738l-4.021,24.664
							c-3.698,11.597-26.513,7.215-35.427-3.562l5.759-38.147c0,0-3.611-26.357-1.083-42.966
							C211.206,202.543,212.785,199.206,214.984,196.25z"/>
						<path style="fill:#421B36;" d="M262.347,209.192c0,1.295-0.946,2.344-2.113,2.344c-1.167,0-2.113-1.049-2.113-2.344
							s0.946-2.344,2.113-2.344C261.401,206.847,262.347,207.897,262.347,209.192z"/>
						<path style="fill:#421B36;" d="M239.225,210.898c0,1.295-0.946,2.344-2.113,2.344c-1.167,0-2.113-1.049-2.113-2.344
							c0-1.295,0.946-2.344,2.113-2.344C238.279,208.554,239.225,209.604,239.225,210.898z"/>
						<g>
							<path style="fill:#421B36;" d="M227.107,199.731c4.606-2.862,9.453-2.702,14.537-1.648c0.708,0.146,1.262-0.896,0.524-1.242
								c-5.128-2.406-11.04-0.871-15.444,2.235C226.331,199.353,226.686,199.993,227.107,199.731L227.107,199.731z"/>
						</g>
						<g>
							<path style="fill:#421B36;" d="M229.317,261.113c5.862,4.244,12.869,6.094,20.075,5.699c0.766-0.042,0.778-1.212,0-1.2
								c-7.107,0.108-13.627-1.519-20.018-4.596C229.308,260.984,229.259,261.071,229.317,261.113L229.317,261.113z"/>
						</g>
						<path style="fill:#421B36;" d="M184.192,163.482c-8.385,4.289-13.423,8.098-21.1,13.554c-3.185,2.263-6.319,4.786-8.282,8.164
							c-0.904,1.556-1.541,3.473-0.857,5.138c0.7,1.704,2.561,2.616,4.343,3.079c4.249,1.103,8.928,0.443,12.707-1.793
							c-4.125,2.072-7.488,5.62-9.338,9.849c-0.967,2.211-1.444,5.018,0.115,6.861c1.941,2.294,5.588,1.625,8.431,0.652
							c11.383-3.897,22.189-9.474,31.959-16.496l18.328-16.52C214.305,154.068,192.158,159.406,184.192,163.482z"/>
						<path style="fill:#8380FF;" d="M217.465,172.15c-2.386-1.113-5.131-1.61-7.685-0.97c-2.155,0.54-4.03,1.834-5.852,3.104
							c-1.285,0.896-2.652,1.901-3.11,3.398c-0.585,1.914,0.594,4.013,2.256,5.129c1.662,1.116,3.703,1.472,5.677,1.803
							l15.079-7.844C221.92,174.957,219.852,173.263,217.465,172.15z"/>
						<path style="fill:#421B36;" d="M245.701,178.524c0,0-13.947,23.98-29.345,28.324c0,0,10.291,62.985-1.736,66.564
							c-12.027,3.579-13.884-7.475-13.884-7.475s-13.836,17.103-20.471,7.77c-6.634-9.334-5.285-13.34-5.285-13.34
							s-6.572,11.702-16.222,6.85c-9.65-4.852,3.188-32.19,9.54-44.266C175.731,208.823,205.465,160.764,245.701,178.524z"/>
						<g>
							<path style="fill:#421B36;" d="M245.735,180.191c6.968-6.755,13.821-9.26,23.328-6.248c0.495,0.157,0.831-0.61,0.358-0.848
								c-8.067-4.062-19.601-1.366-23.818,6.994C245.56,180.173,245.664,180.26,245.735,180.191L245.735,180.191z"/>
						</g>
						<g>
							<path style="fill:#421B36;" d="M261.436,165.024c-9.671,0.51-17.045,7.201-18.759,16.728
								c-0.137,0.761,1.03,1.087,1.166,0.322c1.593-8.946,8.638-15.543,17.625-16.81
								C261.604,165.244,261.572,165.016,261.436,165.024L261.436,165.024z"/>
						</g>
						<path style="fill:#FFAE7A;" d="M192.093,228.226c0.532-2.151,1.64-4.225,3.418-5.548c1.778-1.322,5.377-1.676,7.36-0.686
							l3.096,17.741c-3.201,1.823-9.081,1.564-11.57-1.152C191.91,235.866,191.209,231.802,192.093,228.226z"/>
						<g>
							<path style="fill:#421B36;" d="M197.37,231.951c1.831-1.568,4.357-1.178,5.891,0.466c0.471,0.505,1.374-0.163,0.972-0.75
								c-0.83-1.209-2.237-1.958-3.712-1.956c-1.62,0.003-2.533,0.815-3.335,2.097C197.111,231.928,197.273,232.034,197.37,231.951
								L197.37,231.951z"/>
						</g>
						<g>
							<path style="fill:#421B36;" d="M266.068,197.139c-3.746-3.374-11.236-1.998-13.998,1.94
								c-4.852,6.917-0.898,18.626,3.113,25.015c0.49,0.78,1.646,0.097,1.23-0.719c-2.911-5.71-6.084-12.939-4.647-19.511
								c0.893-4.084,3.229-6.668,7.44-7.047c2.062-0.185,4.687-0.3,6.509,0.779C265.994,197.76,266.318,197.364,266.068,197.139
								L266.068,197.139z"/>
						</g>
					</g>
					<path style="fill:#FFFFFF;" d="M242.438,226.456c3.784,0.96,7.524,2.091,11.206,3.39c0.934,0.329,1.95,0.743,2.391,1.63
						c0.472,0.95,0.101,2.114-0.493,2.992c-1.74,2.575-5.262,3.593-8.28,2.851c-3.018-0.742-5.508-2.995-7.088-5.671
						c-0.609-1.031-1.111-2.185-1.046-3.381C239.193,227.072,240.765,226.032,242.438,226.456"/>
				</g>
				<g>
					<path style="fill:#421B36;" d="M200.96,213.122c1.001,11.305,3.62,22.228,3.201,33.658c-0.039,1.067,1.582,1.052,1.65,0
						c0.727-11.192-1.28-22.951-4.133-33.755C201.576,212.638,200.923,212.702,200.96,213.122L200.96,213.122z"/>
				</g>
				<g>
					<path style="fill:#421B36;" d="M203.484,174.759c0.198,0.401,0.563,0.583,0.916,0.842c0.493,0.362,0.977,0.743,1.417,1.169
						c0.883,0.852,1.523,1.834,2.124,2.895c0.307,0.542,1.09,0.066,0.826-0.483c-0.571-1.186-1.47-2.254-2.47-3.103
						c-0.688-0.584-1.82-1.596-2.783-1.395C203.48,174.69,203.471,174.731,203.484,174.759L203.484,174.759z"/>
				</g>
				<g>
					<path style="fill:#421B36;" d="M211.044,171.003c1.135,0.594,2.091,1.448,2.783,2.529c0.674,1.053,0.759,2.152,1.166,3.282
						c0.173,0.48,0.798,0.37,0.856-0.116c0.314-2.635-2.485-5.139-4.726-5.884C211.013,170.778,210.94,170.949,211.044,171.003
						L211.044,171.003z"/>
				</g>
			</g>
			<g>
				<g>
					<path style="fill:#8380FF;" d="M249.085,207.78c-0.043-1.425-4.109-7.481-17.114-6.988
						c-13.574,0.514-16.939,2.922-16.939,2.922s-1.603,2.54-0.965,3.438c0.639,0.898,2.289,1.54,2.289,1.54
						s-1.156,23.21,18.103,19.877C253.717,225.236,249.128,209.205,249.085,207.78z M245.178,221.633
						c-3.057,3.353-4.634,5.465-14.673,5.559c-10.039,0.094-11.767-12.077-11.687-16.155c0.081-4.078,2.222-5.558,2.522-5.676
						c5.035-1.986,13.02-2.639,18.86-1.593c5.84,1.046,6.823,3.258,7.212,5.998C247.801,212.506,248.236,218.281,245.178,221.633z"
						/>
					<path style="fill:#8380FF;" d="M268.803,226.843c17.628,1.95,14.757-21.105,14.757-21.105s1.437-0.758,1.942-1.698
						c0.505-0.94-1.141-3.358-1.141-3.358s-3.224-2.161-15.504-1.706c-11.765,0.436-14.954,6.762-14.88,8.186
						C254.051,208.585,251.176,224.893,268.803,226.843z M255.642,209.022c0.135-2.758,0.847-5.034,6.03-6.493
						c5.183-1.459,12.435-1.377,17.131,0.244c0.279,0.096,2.327,1.419,2.721,5.479c0.394,4.06-0.206,16.316-9.265,16.937
						s-10.647-1.372-13.668-4.496C255.57,217.568,255.507,211.781,255.642,209.022z"/>
					<path style="fill:#8380FF;" d="M248.494,207.293c0,0,3.347-1.885,6.773,0v2.089c0,0-4.374-1.4-6.256,0.34L248.494,207.293z"/>
				</g>
				<path style="fill:#8380FF;" d="M201.836,221.696l0.318-0.27l14.687-12.477l-1.1-4.767c0,0-16.818,15.159-16.894,17.318"/>
				<g>
					<path style="fill:#FFFFFF;" d="M217.617,206.68c1.609,0,1.611-2.5,0-2.5C216.008,204.18,216.006,206.68,217.617,206.68
						L217.617,206.68z"/>
				</g>
				<g>
					<path style="fill:#FFFFFF;" d="M282.989,203.754c1.609,0,1.611-2.5,0-2.5C281.381,201.254,281.378,203.754,282.989,203.754
						L282.989,203.754z"/>
				</g>
				<g>
					<path style="fill:#421B36;" d="M214.825,203.593c-1.21,2.031-0.133,4.368,1.079,6.137c0.3,0.438,1.013,0.035,0.72-0.421
						c-1.091-1.7-2.167-3.465-1.362-5.532C215.362,203.52,214.96,203.367,214.825,203.593L214.825,203.593z"/>
				</g>
				<g>
					<path style="fill:#421B36;" d="M254.201,207.013c0.001,0.304,0.036,0.599,0.047,0.902c0.012,0.339-0.107,0.637-0.163,0.964
						c-0.06,0.356,0.402,0.759,0.689,0.401c0.542-0.676,0.442-2.038-0.472-2.344C254.252,206.919,254.201,206.963,254.201,207.013
						L254.201,207.013z"/>
				</g>
			</g>
			<g>
				<path style="fill:#FFFFFF;" d="M266.586,221.258c4.355-3.474,8.748-6.919,12.925-10.608c0.7-0.618-0.313-1.593-1.014-1.014
					c-4.286,3.535-8.366,7.32-12.468,11.066C265.647,221.049,266.199,221.566,266.586,221.258L266.586,221.258z"/>
			</g>
			<g>
				<path style="fill:#FFFFFF;" d="M272.299,212.889c1.879-1.2,3.605-2.565,5.165-4.16c0.558-0.57-0.326-1.454-0.875-0.875
					c-1.461,1.541-3.046,2.97-4.772,4.209C271.325,212.416,271.771,213.226,272.299,212.889L272.299,212.889z"/>
			</g>
			<g>
				<path style="fill:#8380FF;" d="M203.085,181.721c-10.789,5.517-19.462,14.333-24.898,25.162
					c-0.315,0.627,0.611,1.18,0.947,0.554c5.708-10.63,13.879-19.038,24.287-25.141
					C203.793,182.078,203.465,181.527,203.085,181.721L203.085,181.721z"/>
			</g>
		</g>
		<path style="fill:#8380FF;" d="M241.493,301.391c-2.89-6.23-9.79-9.415-16.27-11.692c-13.835-4.86-28.304-7.91-42.923-9.049
			c0,0-0.59,28.274,21.229,31.602C225.347,315.581,241.493,301.391,241.493,301.391z"/>
		<g>
			<path style="fill:#421B36;" d="M175.615,292.154c12.868,16.588,34.436,24.487,54.934,19.2c0.818-0.211,0.472-1.464-0.349-1.266
				c-19.695,4.758-41.533-2.312-54.134-18.385C175.812,291.38,175.367,291.834,175.615,292.154L175.615,292.154z"/>
		</g>
		<g>
			<path style="fill:#421B36;" d="M239.596,297.421c-10.836-7.12-22.763-11.361-35.441-13.882c-5.937-1.18-11.959-1.801-17.882-3.07
				c-3.254-0.697-6.999-1.368-9.914-3.056c-4.949-2.866,2.381-5.279,5.084-6c6.46-1.722,13.451-2.23,20.13-2.302
				c0.826-0.009,0.828-1.293,0-1.284c-7.498,0.082-15.718,0.449-22.824,3.03c-4.982,1.809-8.078,5.326-2.085,8.109
				c6.467,3.004,14.16,3.655,21.147,4.618c14.61,2.016,29.075,6.21,41.668,14.039C239.607,297.704,239.721,297.504,239.596,297.421
				L239.596,297.421z"/>
		</g>
		<g>
			<path style="fill:#421B36;" d="M244.432,307.114c7.015-5.584,9.976-14.283,8.634-23.061c-0.121-0.793-1.345-0.462-1.211,0.334
				c1.421,8.476-1.536,16.562-7.516,22.634C244.278,307.083,244.367,307.166,244.432,307.114L244.432,307.114z"/>
		</g>
		<g>
			<path style="fill:#421B36;" d="M199.65,419.162c4.019,2.859,8.433,4.513,11.245,8.804c0.378,0.576,1.295,0.053,0.931-0.544
				c-2.566-4.207-7.511-6.984-12.078-8.491C199.603,418.883,199.54,419.083,199.65,419.162L199.65,419.162z"/>
		</g>
		<g>
			<g>
				<path style="fill:#FFFFFF;" d="M241.105,308.178c0.083,0.098,0.167,0.197,0.25,0.295c0.121,0.143,0.379,0.167,0.533,0.069
					c0.126-0.081,0.252-0.161,0.379-0.241c0.283-0.18,0.344-0.567,0.105-0.814c-3.232-3.328-7.386-5.629-11.914-6.66
					c-1.717-0.391-6.148-1.718-6.952,0.679c-0.925,2.759,5.14,5.715,6.929,6.491c3.717,1.613,7.731,1.952,11.692,1.212
					c0.686-0.128,0.389-1.151-0.287-1.04c-3.013,0.498-6.049,0.377-8.96-0.6c-2.029-0.681-6.959-2.534-6.947-4.982
					c-0.445-1.012-0.111-1.305,1.002-0.879c1.063,0.08,2.113,0.234,3.152,0.464c1.099,0.239,2.185,0.558,3.24,0.95
					c0.653,0.242,8.24,4.602,7.811,4.804C241.037,307.975,241.045,308.107,241.105,308.178L241.105,308.178z"/>
			</g>
			<g>
				<path style="fill:#FFFFFF;" d="M241.89,309.205c5.613-3.188,11.29-11.69,9.173-18.431c-0.062-0.198-0.225-0.402-0.442-0.442
					c-2.649-0.486-4.726,3.024-5.869,4.993c-2.093,3.605-3.235,7.867-3.921,11.949c-0.127,0.758,0.968,1.097,1.175,0.324
					c0.45-1.674,4.954-18.18,8.089-14.779c1.213,1.316-1.612,7.677-2.285,8.962c-1.49,2.848-3.633,5.172-6.074,7.224
					C241.625,309.101,241.769,309.275,241.89,309.205L241.89,309.205z"/>
			</g>
			<g>
				<path style="fill:#FFFFFF;" d="M242.688,308.245c0.262,15.189-2.413,29.674-7.678,43.882c-0.246,0.665,0.876,1.149,1.157,0.488
					c5.926-13.957,8.128-29.316,6.69-44.369C242.846,308.139,242.686,308.135,242.688,308.245L242.688,308.245z"/>
			</g>
			<g>
				<path style="fill:#FFFFFF;" d="M243.408,308.836c6.251,13.339,8.453,27.51,7.986,42.144c-0.025,0.784,1.126,0.755,1.2,0
					c1.434-14.685-2.17-29.298-9.016-42.244C243.518,308.623,243.355,308.722,243.408,308.836L243.408,308.836z"/>
			</g>
		</g>
		<g>
			<path style="fill:#421B36;" d="M261.84,361.356c-10.697,16.801-22.84,32.332-34.902,48.144c-0.309,0.405,0.369,0.924,0.707,0.545
				c13.162-14.77,24.306-31.608,34.592-48.457C262.392,361.334,261.999,361.107,261.84,361.356L261.84,361.356z"/>
		</g>
		<g>
			<path style="fill:#8380FF;" d="M198.947,418.76c0.005-2.656-0.852-4.825-2.847-6.128c-8.6-5.62-35.253-15.469-35.253-15.469
				s16.808-35.54,18.525-44.722c3.081-16.475-12.036-55.735-12.036-55.735c-0.119,0.466-15.259,5.854-25.771,25.805
				c-19.319,36.665-46.669,86.647-30.204,100.862c23.82,20.565,47.278,25.265,61.07,26.621c3.736,0.367,8.285-2.187,12.555-6.123
				c1.699,2.708,11.24,4.08,15.792,4.377c2.598,0.17,5.286-16.875,9.888-20.103C213.623,426.067,201.095,419.436,198.947,418.76z"/>
			<path style="fill:#A0D2F4;" d="M115.246,375.66c-3.017,3.415,40.498,26.121,44.937,20.866c1.305-1.545,9.815-17.382,9.815-17.382
				c-3.365,5.348-46.517-21.238-45.042-24.533C125.792,352.744,115.246,375.66,115.246,375.66z"/>
			<g>
				<path style="fill:#421B36;" d="M163.542,310.905c9.052,11.898,15.328,26.382,15.019,41.535c-0.021,1.043,1.61,1.045,1.622,0
					c0.179-15.57-6.484-30-16.067-41.978C163.859,310.141,163.29,310.574,163.542,310.905L163.542,310.905z"/>
			</g>
			<g>
				<path style="fill:#421B36;" d="M127.501,403.872c10.479-5.528,21.802-6.836,33.416-5.401c0.773,0.095,0.947-1.21,0.184-1.363
					c-11.738-2.352-23.616,0.438-33.737,6.528C127.213,403.728,127.346,403.953,127.501,403.872L127.501,403.872z"/>
			</g>
			<g>
				<path style="fill:#421B36;" d="M160.537,397.755c6.833-12.704,13.328-25.98,19.343-39.093c0.171-0.373-0.332-0.685-0.559-0.327
					c-7.63,12.055-14.38,25.82-19.085,39.293C160.176,397.805,160.45,397.918,160.537,397.755L160.537,397.755z"/>
			</g>
			<g>
				<path style="fill:#421B36;" d="M199.822,419.082c1.139-5.951-8.321-10.214-12.385-12.045c-8.578-3.865-17.689-6.63-26.533-9.82
					c-0.711-0.257-1.221,0.922-0.52,1.234c7.078,3.15,14.668,5.102,21.856,7.996c6.678,2.689,14.363,5.685,17.377,12.663
					C199.655,419.197,199.805,419.173,199.822,419.082L199.822,419.082z"/>
			</g>
			<g>
				<path style="fill:#421B36;" d="M189.585,427.771c2.12,1.703,4.945,2.729,7.348,4.011c2.657,1.417,5.315,3.044,8.211,3.908
					c0.549,0.164,0.872-0.628,0.387-0.917c-2.844-1.689-5.99-3.002-8.958-4.475c-2.16-1.071-4.488-2.472-6.92-2.688
					C189.574,427.603,189.523,427.72,189.585,427.771L189.585,427.771z"/>
			</g>
			<g>
				<path style="fill:#421B36;" d="M185.29,443.869c-0.453-9.536,4.994-20.289,14.209-23.88c0.635-0.247,0.376-1.275-0.287-1.04
					c-9.496,3.368-16.085,15.174-14.521,25.001C184.746,444.289,185.306,444.209,185.29,443.869L185.29,443.869z"/>
			</g>
			<g>
				<path style="fill:#421B36;" d="M160.621,396.95c-6.879-7.251-16.285-11.29-26.126-12.438c-0.7-0.082-0.693,1.015,0,1.097
					c9.908,1.175,18.299,5.273,26.059,11.407C160.601,397.053,160.663,396.995,160.621,396.95L160.621,396.95z"/>
			</g>
			<g>
				<path style="fill:#421B36;" d="M185.797,438.559c4.587,3.376,11.575,5.896,17.18,6.705c0.677,0.098,0.972-0.825,0.289-1.049
					c-2.916-0.956-5.885-1.678-8.774-2.734c-2.862-1.047-5.601-2.458-8.501-3.385C185.7,438.003,185.581,438.4,185.797,438.559
					L185.797,438.559z"/>
			</g>
			<g>
				<path style="fill:#421B36;" d="M146.023,315.688c6.896-10.088,16.392-17.511,27.671-22.115c0.495-0.202,0.302-1.008-0.227-0.823
					c-11.705,4.1-21.304,12.215-27.606,22.843C145.799,315.698,145.956,315.786,146.023,315.688L146.023,315.688z"/>
			</g>
		</g>
	</g>
	<g style="opacity:0.3;">
		<path style="fill:#421B36;" d="M115.396,404.729c0.275,0.831,0.791,1.243,1.33,1.654c0.714-0.198,1.208-0.597,1.498-1.229
			C118.065,403.222,116.453,403.685,115.396,404.729z"/>
		<path style="fill:#421B36;" d="M128.5,394.779c0.32-0.269,0.647-0.542,0.968-0.813c0-0.295,0-0.585,0-0.897
			c-0.795,0.269-1.579,0.567-2.354,0.889C127.262,394.377,127.681,394.725,128.5,394.779z"/>
		<path style="fill:#421B36;" d="M147.421,396.938c0.795-0.09,1.592-0.163,2.39-0.218c0.001-0.001,0.001-0.002,0.002-0.003
			C149.389,393.854,146.708,395.582,147.421,396.938z"/>
		<path style="fill:#421B36;" d="M155.4,396.629c0.093-0.648-0.31-1.366-1.655-1.505c-0.344,0.466-0.692,0.782-0.865,1.331
			c0.024,0.054,0.051,0.09,0.075,0.14C153.771,396.587,154.585,396.599,155.4,396.629z"/>
		<path style="fill:#421B36;" d="M115.155,401.944c-0.095,0.096-0.195,0.188-0.289,0.284c-0.308,0.317-0.612,0.668-0.894,1.04
			C114.955,403.217,115.332,402.631,115.155,401.944z"/>
		<path style="fill:#421B36;" d="M127.195,398.63c-0.581,2.715,2.785,2.483,2.244-0.001
			C128.638,398.103,127.91,398.097,127.195,398.63z"/>
		<path style="fill:#421B36;" d="M137.157,397.468c0.45-0.38,1.123-0.543,0.967-1.283c-0.502-1.388-2.361-1.015-2.615,0.465
			C135.857,397.175,136.461,398.323,137.157,397.468z"/>
		<path style="fill:#421B36;" d="M121.681,403.915c-0.092,0.254-0.185,0.512-0.305,0.844c0.29,0.574,0.254,1.291,0.975,1.656
			c0.037-0.024,0.075-0.048,0.112-0.071c0.416-0.292,0.836-0.578,1.26-0.857C124.05,404.162,122.745,403.659,121.681,403.915z"/>
		<path style="fill:#421B36;" d="M117.84,399.511c-0.396,0.324-0.785,0.657-1.166,0.998c0.09,0.04,0.171,0.084,0.275,0.12
			C117.224,400.284,117.518,399.915,117.84,399.511z"/>
		<path style="fill:#421B36;" d="M152.033,394.476c0.164-0.332,0.322-0.652,0.479-0.97c-0.067-0.193-0.134-0.387-0.206-0.592
			c-0.528-0.168-1.059-0.327-1.594-0.471C149.699,393.11,150.182,395.523,152.033,394.476z"/>
		<path style="fill:#421B36;" d="M138.587,398.682c0.589-0.168,1.182-0.319,1.776-0.468c-0.071-0.126-0.148-0.252-0.232-0.376
			C139.397,397.771,138.827,398.172,138.587,398.682z"/>
		<path style="fill:#421B36;" d="M125.806,403.498c0.416-0.478,0.652-1.004,0.818-1.534c-0.125-0.34-0.232-0.634-0.369-1.003
			c-0.354-0.098-0.648-0.178-0.955-0.263C123.77,401.645,124.108,403.076,125.806,403.498z"/>
		<path style="fill:#421B36;" d="M137.935,391.292c-0.387,0.033-0.774,0.067-1.16,0.113c-0.191,0.023-0.38,0.055-0.57,0.081
			c0.033,0.065,0.068,0.128,0.109,0.182C136.942,391.788,137.641,391.78,137.935,391.292z"/>
		<path style="fill:#421B36;" d="M117.217,409.672c0.065-0.02,0.124-0.054,0.188-0.076c-0.055-0.037-0.091-0.083-0.156-0.115
			c-0.598-0.068-1.001,0.078-1.261,0.393C116.406,409.859,116.824,409.793,117.217,409.672z"/>
		<path style="fill:#421B36;" d="M135.142,398.329c-2.076-1.637-2.905,1.664-1.141,1.881c0.323-0.124,0.65-0.236,0.976-0.354
			C135.032,399.354,135.413,398.91,135.142,398.329z"/>
		<path style="fill:#421B36;" d="M158.885,396.616c-0.003,0.078,0.004,0.15,0.016,0.218l1.717-0.073
			c-0.547-0.344-1.106-0.667-1.671-0.98C158.85,396.004,158.816,396.283,158.885,396.616z"/>
		<path style="fill:#421B36;" d="M125.894,397.51c0.476-0.37,0.482-0.876,0.659-1.391
			C125.055,393.353,122.492,397.384,125.894,397.51z"/>
		<path style="fill:#421B36;" d="M146.911,393.323c-0.453-1.355-2.028-1.196-2.462,0.103
			C144.602,395.27,146.498,394.975,146.911,393.323z"/>
		<path style="fill:#421B36;" d="M119.974,403.234c1.09-0.689,1.167-2.009-0.066-2.574c-0.652,0.474-1.216,0.947-1.4,1.736
			c0.088,0.18,0.176,0.355,0.268,0.541C119.204,403.042,119.616,403.145,119.974,403.234z"/>
		<path style="fill:#421B36;" d="M118.351,407.455c0.188,0.627,0.47,1.057,0.861,1.237c0.489-0.319,0.959-0.673,1.427-1.027
			C120.506,406.388,119.196,406.026,118.351,407.455z"/>
		<path style="fill:#421B36;" d="M143.919,396.781c-0.129-0.371-0.254-0.733-0.381-1.1c-0.416-0.078-0.792-0.147-1.146-0.213
			c-0.303,0.368-0.574,0.699-0.875,1.066c0.24,0.795,0.889,0.842,1.42,1.102c0.113-0.023,0.226-0.048,0.34-0.07
			C143.537,397.315,143.732,397.12,143.919,396.781z"/>
		<path style="fill:#421B36;" d="M143.404,391.235c-0.574-0.037-1.147-0.063-1.722-0.073
			C141.981,391.546,142.764,391.536,143.404,391.235z"/>
		<path style="fill:#421B36;" d="M113.872,409.014c2.053-0.015,0.081-3.722-0.166-1.965c-0.221,0.02-0.447,0.04-0.674,0.06
			C112.484,407.586,113.042,409.26,113.872,409.014z"/>
		<path style="fill:#421B36;" d="M130.06,401.91c0.528-0.252,1.057-0.5,1.593-0.735C130.964,400.996,130.212,401.37,130.06,401.91z"
			/>
		<path style="fill:#421B36;" d="M133.016,393.025c0.143,1.027,0.143,1.027,0.741,1.598
			C136.535,394.271,134.844,391.324,133.016,393.025z"/>
		<path style="fill:#421B36;" d="M139.533,394.363c0.373,0,0.723,0,1.087,0C142.292,391.862,136.931,391.679,139.533,394.363z"/>
		<path style="fill:#421B36;" d="M123.691,398.953c-0.804-1.4-2.08-0.417-2.2,0.609C121.848,401.24,123.491,400.122,123.691,398.953
			z"/>
		<path style="fill:#421B36;" d="M131.107,397.626c0.885-0.365,0.92-1.175,1.266-1.809
			C130.817,393.996,129.601,396.472,131.107,397.626z"/>
	</g>
	<path style="opacity:0.3;fill:#421B36;" d="M176.136,383.873c0.605-0.052,1.15-0.098,1.764-0.15
		c0.599,0.425,0.384,1.273,0.494,1.946C177.005,387.2,175.511,385.502,176.136,383.873z M175.762,386.869
		c-1.374-0.892-2.742,0.051-2.263,1.611c0.17,0.582,0.992,0.351,1.438,0.617c0.322,0.053,0.662-0.22,0.607-0.555
		C175.377,387.892,175.942,387.534,175.762,386.869z M181.566,387.376c-0.097-0.945-1.322-0.6-2.004-0.777
		c-1.374,0.893-0.298,2.193,0.977,2.267C181.372,388.969,181.705,388.068,181.566,387.376z M181.525,370.648
		c-0.29-0.483-0.33-0.808-0.221-1.402C177.302,368.532,179.235,373.646,181.525,370.648z M166.634,385.625
		c0.174-0.194,0.296-0.452,0.296-0.809c-0.1-0.075-0.169-0.18-0.229-0.294l-0.247,0.471L166.634,385.625z M176.2,374.673
		c0.414-0.701,1.095-0.359,1.732-0.227c0.644-1.475,0.448-2.735-1.451-2.268c-0.911,0.738,0.142,2.143-0.987,2.616
		C175.747,374.862,176.02,374.982,176.2,374.673z M188.678,403.485c0.299-0.523,0.746-0.91,1.326-1.149
		c-0.193-1.291-1.206-1.548-2.325-1.738C187.476,401.606,187.466,403.184,188.678,403.485z M178.417,367.58
		c-0.178-0.606-0.254-1.277-1.245-1.414C174.311,367.1,177.685,370.598,178.417,367.58z M181.556,373.738
		c0.307,0.427,0.795,0.623,1.272,0.623l-0.51-1.98C181.91,372.662,181.586,373.135,181.556,373.738z M170.068,382.427
		c-0.006-1.151-0.803-1.634-1.542-1.389l-0.836,1.595C168.096,383.597,169.385,383.315,170.068,382.427z M169.712,388.339
		c0.321-1.008-0.023-1.658-0.877-2.07c-1.416,0.327-1.073,1.029-1.268,2.194C168.345,388.789,169.039,388.609,169.712,388.339z
		 M185.636,398.095c-0.504,0.469-0.816,1.031-0.867,1.744c0.346,0.373,0.803,0.525,1.267,0.75c0.34-0.353,0.796-0.624,1.232-0.809
		C187.607,398.664,186.388,398.441,185.636,398.095z M175.477,374.804c0.007-0.003,0.009-0.007,0.016-0.01
		c-0.011-0.003-0.023-0.007-0.034-0.009c0.001,0.011,0.003,0.019,0.004,0.03c0.006-0.003,0.012-0.004,0.018-0.007
		C175.48,374.807,175.478,374.805,175.477,374.804z M173.203,375.677c0.643,1.33,1.326,2.265,2.61,0.996
		c-0.2-0.758-0.273-1.172-0.351-1.859C174.724,375.179,173.714,374.941,173.203,375.677z M183.701,380.101
		c0.994-1.969-1.577-3.33-2.061-0.754C182.036,379.951,183.151,380.988,183.701,380.101z M179.018,382.579
		c1.123,0.983,1.928,0.398,2.281-0.929c-0.984-1.202-1.278-1.221-2.244-0.17C178.67,381.854,178.558,382.267,179.018,382.579z
		 M178.514,361.98l-0.396,0.755c0.153-0.073,0.307-0.147,0.454-0.217C178.568,362.328,178.545,362.151,178.514,361.98z
		 M179.376,403.959c-0.015,0.221-0.032,0.351-0.064,0.465l2.034,0.942c0.088-0.126,0.154-0.266,0.186-0.419
		C181.072,403.986,180.255,403.925,179.376,403.959z M184.965,382.664l-0.25-0.97c-0.006,0.029-0.017,0.055-0.022,0.085
		C184.746,382.172,184.841,382.459,184.965,382.664z M171.802,397.74c0.225-0.123,0.398-0.217,0.594-0.324
		c0.041-0.568,0.132-1.066,0.304-1.627c-0.558-0.238-1.059-0.453-1.606-0.686C169.585,396.735,170.625,396.737,171.802,397.74z
		 M180.794,392.498c-0.697,0.053-1.517-0.279-2.052,0.682c0.11,0.576,0.561,0.848,0.913,1.192
		C181.051,394.765,182.051,393.542,180.794,392.498z M175.747,393.337c-0.439-0.798-1.187-0.778-1.982-1.103
		c-0.218,0.396-0.838,0.604-0.797,1.223C174.012,394.718,175.021,394.994,175.747,393.337z M172.22,389.363
		c-0.458,0.168-1.249,0.192-1.355,0.741c0.085,0.511-1.069,0.84-0.297,1.288c0.589,0.326,2.35,0.803,2.055-0.428
		c-0.121-0.37-0.02-0.589,0.197-0.842C172.626,389.876,172.433,389.632,172.22,389.363z M175.249,371.011
		c1.074-1.129,0.317-1.597-0.615-1.627l-0.926,1.767C174.12,371.338,174.714,371.316,175.249,371.011z M173.097,398.759
		c-0.336,1.82,2.11,1.737,2.678,0.453C174.89,398.009,174.416,397.926,173.097,398.759z M172.246,373.94l-0.18,0.344
		C172.156,374.197,172.216,374.081,172.246,373.94z M176.583,403.042c1.025,0.16,2.165-0.23,1.838-1.508
		c-0.467-0.203-0.931-0.404-1.412-0.613C176.16,401.347,175.631,402.37,176.583,403.042z M175.087,381.009
		c-0.365-0.039-0.754-0.082-1.24-0.135C171.215,383.539,177.179,383.485,175.087,381.009z M172.913,379.298
		c0.148-0.778-0.831-1.246-1.563-1.375c-0.32,0.319-0.68,0.679-1.064,1.061c0.146,0.305,0.263,0.551,0.38,0.795
		C171.536,380.14,172.292,380.063,172.913,379.298z M176.794,380.211c0.641-0.381,1.489-0.205,1.685-1.229
		C177.292,376.669,174.77,378.952,176.794,380.211z M185.228,386.821c-0.148,0.199,0.15,0.579-0.198,0.815
		c-0.253,0.367,0.113,0.824,0.269,1.232c0.539,0.107,0.95,0.053,1.238-0.099l-0.617-2.397
		C185.691,386.5,185.388,386.607,185.228,386.821z M180.261,397.877c-0.408,0.309-0.811,0.612-1.188,0.896
		c0.098,0.646,0.067,1.284,0.789,1.582c0.353-0.089,0.732-0.184,1.133-0.284c0.107-0.295,0.211-0.587,0.306-0.849
		C181.111,398.632,180.806,398.185,180.261,397.877z M180.15,377.54c0.7-0.052,0.466-0.95,1.037-1.118
		C181.584,373.937,176.87,375.7,180.15,377.54z M187.615,396.093c0.195,0.454,0.381,0.885,0.564,1.311
		c0.204,0.067,0.402,0.074,0.594,0.057l-0.518-2.011C187.98,395.513,187.748,395.7,187.615,396.093z M172.66,384.292
		c-1.24-1.534-2.97-0.164-1.73,1.409C172.211,386.034,172.412,385.434,172.66,384.292z M176.437,389.536
		c-0.17,0.877-0.002,2.321,1.165,2.157C179.378,390.603,178.206,389.237,176.437,389.536z M182.414,397.412
		c0.967,0.405,1.421-0.355,2.032-0.83C183.442,394.31,181.761,395.241,182.414,397.412z M178.154,396.941
		c1.215-1.378-2.638-2.429-2.084-0.125C176.83,397.551,177.499,397.195,178.154,396.941z M192.087,410.339l-0.196-0.761
		c-0.324-0.061-0.67,0.01-0.947,0.232L192.087,410.339z M184.177,390.927c0-0.359,0-0.63,0-0.911
		c-0.679-0.149-2.349-1.26-2.015,0.036C181.91,391.908,182.843,391.712,184.177,390.927z M184.692,404.935
		c0.3,0.387,0.123,0.885,0.552,1.105c0.631-0.202,1.354,0.142,1.803-0.512C187.02,403.737,185.69,403.713,184.692,404.935z
		 M189.935,407.843c-0.179-0.981-1.859-1.427-2.306-0.465c0.162,0.516,0.414,0.95,0.803,1.268l0.689,0.319
		C189.601,408.734,189.8,408.305,189.935,407.843z M169.753,393.568c-0.396-0.449-0.778-0.885-1.152-1.309
		c-0.028,0.003-0.047,0.013-0.073,0.018l0.535,1.879C169.332,394.044,169.582,393.887,169.753,393.568z M178.94,365.009
		c0.393,0.28,0.739,0.529,1.317,0.941c0.078-0.223,0.167-0.359,0.289-0.456l-0.433-1.681
		C179.592,363.911,179.073,364.285,178.94,365.009z M183.71,402.951c1.237-0.844,0.535-1.334-0.373-2.005
		C181.483,401.286,182.037,403.003,183.71,402.951z M184.093,385.081c0.594-1.189-2.196-1.856-2.032-0.322
		C182.053,385.804,183.719,386.122,184.093,385.081z M187.029,393.429c-0.094-0.304-0.174-0.56-0.275-0.89
		C183.655,392.065,184.587,395.614,187.029,393.429z M190.882,405.654l-0.113-0.438c-0.024,0.077-0.047,0.151-0.069,0.224
		C190.762,405.525,190.822,405.587,190.882,405.654z"/>
</g>
</svg>
