<?xml version="1.0" encoding="utf-8"?>
<!-- Generator: Adobe Illustrator 27.5.0, SVG Export Plug-In . SVG Version: 6.00 Build 0)  -->
<svg version="1.1" xmlns="http://www.w3.org/2000/svg" xmlns:xlink="http://www.w3.org/1999/xlink" x="0px" y="0px"
	 viewBox="0 0 500 500" style="enable-background:new 0 0 500 500;" xml:space="preserve">
<g id="OBJECTS">
	<path style="fill:#E9EFFF;" d="M420.225,306.459c-21.546-35.078-57.237-62.391-67.958-102.137
		c-5.798-21.496-3.598-44.817-11.48-65.639c-10.53-27.817-39.003-47.035-68.658-49.329s-59.454,11.137-79.764,32.866
		c-30.464,32.592-39.629,80.033-66.765,115.444c-16.884,22.033-40.329,38.853-54.58,62.674
		c-13.976,23.359-17.84,51.691-15.583,78.818c2.257,27.127,10.25,53.417,18.636,79.314l354.376-3.714
		C450.425,408.078,447.228,350.422,420.225,306.459z"/>
	<g>
		<path style="fill:#FFFFFF;" d="M368.505,292.407c-0.727-0.274-1.442-0.523-2.144-0.747c-1.316-0.42-2.298-1.497-2.578-2.85
			c-0.315-1.525-0.711-3.126-1.167-4.784c-0.213-0.776-1.324-0.772-1.537,0.004c-0.445,1.624-0.833,3.208-1.148,4.744
			c-0.267,1.302-1.196,2.357-2.453,2.789c-0.745,0.256-1.515,0.549-2.3,0.864c-0.681,0.274-0.683,1.244-0.004,1.523
			c0.777,0.319,1.546,0.614,2.3,0.87c1.231,0.418,2.111,1.488,2.385,2.759c0.325,1.507,0.755,3.11,1.238,4.763
			c0.221,0.756,1.298,0.757,1.524,0.003c0.491-1.645,0.925-3.26,1.25-4.822c0.28-1.348,1.253-2.424,2.563-2.849
			c0.673-0.218,1.363-0.462,2.07-0.729C369.208,293.68,369.209,292.672,368.505,292.407z"/>
		<path style="fill:#FFFFFF;" d="M92.401,324.618c-0.727-0.274-1.442-0.523-2.145-0.747c-1.316-0.42-2.298-1.497-2.578-2.85
			c-0.315-1.525-0.711-3.126-1.167-4.785c-0.214-0.776-1.324-0.772-1.537,0.004c-0.445,1.624-0.833,3.208-1.148,4.744
			c-0.267,1.302-1.196,2.357-2.452,2.789c-0.745,0.256-1.515,0.549-2.3,0.864c-0.681,0.274-0.683,1.245-0.004,1.523
			c0.777,0.319,1.546,0.614,2.3,0.871c1.231,0.418,2.111,1.488,2.385,2.759c0.325,1.507,0.755,3.11,1.238,4.763
			c0.221,0.756,1.298,0.757,1.524,0.003c0.491-1.645,0.925-3.26,1.25-4.822c0.281-1.348,1.253-2.424,2.563-2.849
			c0.673-0.218,1.363-0.462,2.07-0.729C93.104,325.891,93.105,324.883,92.401,324.618z"/>
		<path style="fill:#FFFFFF;" d="M144.596,288.225c-0.556-0.21-1.103-0.4-1.64-0.571c-1.006-0.321-1.757-1.145-1.971-2.179
			c-0.241-1.166-0.544-2.39-0.892-3.658c-0.163-0.593-1.013-0.591-1.175,0.003c-0.34,1.242-0.637,2.453-0.878,3.627
			c-0.204,0.995-0.914,1.802-1.875,2.133c-0.57,0.196-1.158,0.42-1.759,0.661c-0.521,0.209-0.522,0.952-0.003,1.165
			c0.594,0.244,1.182,0.469,1.759,0.665c0.941,0.32,1.614,1.138,1.824,2.11c0.249,1.152,0.577,2.378,0.947,3.642
			c0.169,0.578,0.993,0.579,1.165,0.002c0.376-1.258,0.707-2.493,0.956-3.687c0.214-1.031,0.958-1.854,1.96-2.178
			c0.515-0.167,1.042-0.353,1.583-0.557C145.133,289.199,145.134,288.428,144.596,288.225z"/>
		<path style="fill:#FFFFFF;" d="M166.849,356.967c-0.39-0.147-0.773-0.28-1.149-0.4c-0.705-0.225-1.231-0.802-1.381-1.527
			c-0.169-0.817-0.381-1.675-0.625-2.564c-0.114-0.416-0.71-0.414-0.824,0.002c-0.239,0.87-0.446,1.719-0.615,2.542
			c-0.143,0.697-0.641,1.263-1.314,1.494c-0.399,0.137-0.812,0.294-1.232,0.463c-0.365,0.147-0.366,0.667-0.002,0.816
			c0.416,0.171,0.828,0.329,1.232,0.466c0.659,0.224,1.131,0.798,1.278,1.478c0.174,0.807,0.404,1.666,0.663,2.552
			c0.118,0.405,0.696,0.406,0.816,0.001c0.263-0.881,0.496-1.747,0.67-2.583c0.15-0.722,0.671-1.299,1.373-1.527
			c0.361-0.117,0.73-0.247,1.109-0.39C167.226,357.649,167.226,357.109,166.849,356.967z"/>
		<path style="fill:#FFFFFF;" d="M327.962,329.493c-0.39-0.147-0.773-0.28-1.149-0.4c-0.705-0.225-1.231-0.802-1.381-1.527
			c-0.169-0.817-0.381-1.675-0.625-2.564c-0.114-0.416-0.71-0.414-0.824,0.002c-0.239,0.87-0.446,1.719-0.615,2.542
			c-0.143,0.698-0.641,1.263-1.314,1.494c-0.399,0.137-0.812,0.294-1.232,0.463c-0.365,0.147-0.366,0.667-0.002,0.816
			c0.417,0.171,0.828,0.329,1.232,0.466c0.659,0.224,1.131,0.798,1.278,1.478c0.174,0.807,0.404,1.666,0.664,2.552
			c0.118,0.405,0.696,0.406,0.816,0.001c0.263-0.881,0.496-1.747,0.67-2.584c0.15-0.722,0.672-1.299,1.373-1.527
			c0.361-0.117,0.73-0.247,1.109-0.39C328.339,330.176,328.339,329.635,327.962,329.493z"/>
		<path style="fill:#FFFFFF;" d="M324.358,213.521c-0.556-0.21-1.103-0.4-1.64-0.571c-1.006-0.321-1.757-1.145-1.971-2.179
			c-0.241-1.166-0.543-2.39-0.892-3.658c-0.163-0.593-1.013-0.591-1.175,0.003c-0.34,1.242-0.637,2.453-0.878,3.627
			c-0.204,0.995-0.914,1.802-1.875,2.132c-0.57,0.196-1.158,0.42-1.759,0.661c-0.521,0.209-0.522,0.952-0.003,1.165
			c0.594,0.244,1.182,0.469,1.759,0.666c0.941,0.32,1.614,1.138,1.824,2.11c0.249,1.152,0.577,2.378,0.947,3.642
			c0.169,0.578,0.993,0.579,1.165,0.002c0.376-1.258,0.707-2.493,0.956-3.687c0.214-1.031,0.958-1.854,1.96-2.179
			c0.515-0.167,1.042-0.353,1.583-0.557C324.896,214.494,324.896,213.723,324.358,213.521z"/>
	</g>
	<g>
		<g>
			<g>
				<g>
					<path style="fill:#FFB552;" d="M408.802,369.024c-1.74,0.102-3.207,0.997-4.667,1.864c-0.751,0.446-1.441,1.026-2.304,1.204
						c-0.864,0.178-1.804,0.076-2.299-0.741c-0.496-0.817-0.147-1.784,0.512-2.446c0.659-0.662,1.544-0.949,2.4-1.349
						c4.013-1.876,7.568-4.332,10.483-7.663c1.69-1.931,3.047-4.134,2.817-6.69c-0.23-2.557-2.52-4.499-5.005-3.792
						c-1.08,0.307-1.69,1.364-2.553,2.038c-0.863,0.674-1.829,1.254-2.968,0.896c-0.465-3.244,1.086-5.908,3.037-8.31
						c1.951-2.402,4.386-4.478,5.267-7.386c0.881-2.908-0.041-6.216-3.066-7.033c-2.137-0.577-3.887,0.757-5.386,2.319
						c-2.31,2.406-3.749,5.557-4.516,8.857c-0.255,1.099-0.323,2.325-0.772,3.339c-0.449,1.014-1.252,2.003-2.392,1.967
						c-2.006-0.064-2.827-2.453-4.808-2.643c-1.49-0.142-2.574,1.185-2.765,2.618c-0.192,1.433,0.348,2.803,0.86,4.142
						c0.914,2.39,1.898,4.787,2.815,7.176c0.43,1.12,0.937,2.301,0.953,3.497c0.016,1.196-0.28,2.472-1.403,3.054
						c-1.686,0.874-3.339-0.303-4.778-1.181c-1.439-0.878-3.424-1.879-4.872-0.73c-1.448,1.148-1.084,2.835-0.642,4.431
						c0.838,3.021,2.322,5.84,4.152,8.415c1.023,1.44,2.373,2.772,2.906,4.458c0.533,1.686,0.39,3.713-1.389,4.474
						s-3.409-1.106-5.306-0.742c-2.311,0.444-3.464,2.92-3.08,5.305c0.469,2.91,2.133,5.255,4.23,7.358
						c2.097,2.103,4.624,3.759,6.654,5.979c3.427,3.747,5.551,7.831,6.545,12.802c0.163,0.815,0.045,3.614,1.392,2.823
						c1.348-0.791,0.121-4.169,0.027-5.269c-0.314-3.681,0.832-6.514,3.041-9.137c2.209-2.623,4.817-4.249,7.21-6.577
						c1.262-1.228,2.467-2.577,2.893-4.316c0.427-1.739-0.162-3.686-1.833-4.361c-1.671-0.675-3.153,0.264-4.489,1.144
						c-1.336,0.88-2.441,2.185-3.985,2.676c-1.545,0.491-3.454,0.043-4.012-1.564c-0.558-1.607,0.716-2.823,1.854-3.796
						c2.851-2.438,6.002-4.451,9.113-6.585c1.475-1.011,3.093-2.031,4.127-3.557c1.034-1.525,1.415-3.509,0.414-5.084
						C412.214,369.329,410.542,368.922,408.802,369.024z"/>
					<g>
						
							<path style="fill:none;stroke:#0E1823;stroke-width:0.25;stroke-linecap:round;stroke-linejoin:round;stroke-miterlimit:10;" d="
							M398.311,417.448c-7.54-33.88-3.63-62.18,13.18-87.41"/>
						
							<path style="fill:none;stroke:#0E1823;stroke-width:0.25;stroke-linecap:round;stroke-linejoin:round;stroke-miterlimit:10;" d="
							M397.276,362.553c6.29-1.044,11.996-5.481,17.351-11.957"/>
						
							<path style="fill:none;stroke:#0E1823;stroke-width:0.25;stroke-linecap:round;stroke-linejoin:round;stroke-miterlimit:10;" d="
							M399.131,355.725c-4.152-2.412-6.945-6.272-8.347-11.615"/>
						
							<path style="fill:none;stroke:#0E1823;stroke-width:0.25;stroke-linecap:round;stroke-linejoin:round;stroke-miterlimit:10;" d="
							M395.21,374.963c-4.861-2.093-8.624-6.829-11.818-12.935"/>
						
							<path style="fill:none;stroke:#0E1823;stroke-width:0.25;stroke-linecap:round;stroke-linejoin:round;stroke-miterlimit:10;" d="
							M394.736,381.503c6.04-1.478,12.216-5.294,18.479-10.598"/>
						
							<path style="fill:none;stroke:#0E1823;stroke-width:0.25;stroke-linecap:round;stroke-linejoin:round;stroke-miterlimit:10;" d="
							M395.547,401.381c6.033-1.951,11.284-6.468,16.084-12.472"/>
						
							<path style="fill:none;stroke:#0E1823;stroke-width:0.25;stroke-linecap:round;stroke-linejoin:round;stroke-miterlimit:10;" d="
							M394.885,394.102c-5.15-1.278-9.875-4.542-14.318-9.122"/>
					</g>
				</g>
				<g>
					<path style="fill:#D35D57;" d="M447.845,422.508c-1.241-2.492-4.148-3.676-6.895-4.126c-5.118-0.838-10.523,0.198-14.968,2.869
						c2.331-3.185,1.129-8.335-2.372-10.159c-2.658-1.385-6.124-0.582-8.199,1.519c3.029-4.641,6.44-9.076,8.424-14.234
						c2.318-6.024,2.193-13.643-2.501-18.073c-5.438-5.133-14.864-3.576-20.261,1.6s-7.569,12.845-8.673,20.241
						c-0.378-4.922-1.365-10.76-5.867-12.785c-4.359-1.962-9.641,1.239-11.667,5.568c-2.026,4.33-1.681,9.346-1.294,14.11
						c-1.365-5.803-5.635-11.195-11.445-12.53c-5.81-1.335-12.695,2.542-13.419,8.459c-0.568,4.641,2.345,8.693,5.763,12.13
						c-3.015-2.155-6.893-3.179-10.639-3.624c-5.414-0.643-11.355-0.175-15.56,3.295c-4.711,3.889-6.067,10.985-3.975,16.725
						c2.092,5.74,7.147,10.084,12.846,12.285c5.699,2.201,11.989,2.451,18.063,1.799l71.76,5.823
						c10.272-4.219,18.314-13.509,21.019-24.279C448.532,426.936,448.85,424.525,447.845,422.508z"/>
					<g>
						
							<path style="fill:none;stroke:#0E1823;stroke-width:0.25;stroke-linecap:round;stroke-linejoin:round;stroke-miterlimit:10;" d="
							M324.396,422.254c5.807,1.639,11.51,3.606,16.877,6.35c8.579,4.364,16.371,10.92,20.576,19.518"/>
						
							<path style="fill:none;stroke:#0E1823;stroke-width:0.25;stroke-linecap:round;stroke-linejoin:round;stroke-miterlimit:10;" d="
							M352.914,398.399c0,0,0,0.009,0.009,0c3.671,4.065,7.127,8.307,9.853,13.056c6.481,11.276,8.289,24.463,9.394,37.5"/>
						
							<path style="fill:none;stroke:#0E1823;stroke-width:0.25;stroke-linecap:round;stroke-linejoin:round;stroke-miterlimit:10;" d="
							M382.116,388.949c2.8,20.155,2.931,40.665,0.403,60.848"/>
						
							<path style="fill:none;stroke:#0E1823;stroke-width:0.25;stroke-linecap:round;stroke-linejoin:round;stroke-miterlimit:10;" d="
							M390.489,450.444c1.911-9.244,4.449-18.366,7.034-27.451c2.707-9.553,5.479-19.143,9.693-28.134
							c2.819-6.013,6.312-11.782,10.658-16.774"/>
						
							<path style="fill:none;stroke:#0E1823;stroke-width:0.25;stroke-linecap:round;stroke-linejoin:round;stroke-miterlimit:10;" d="
							M403.62,451.512c1.611-8.157,3.587-16.268,7.305-23.686c3.184-6.341,7.848-12.175,13.711-16.043"/>
						
							<path style="fill:none;stroke:#0E1823;stroke-width:0.25;stroke-linecap:round;stroke-linejoin:round;stroke-miterlimit:10;" d="
							M416.245,452.533c4.018-6.472,8.335-12.756,13.533-18.319c4.926-5.263,10.752-9.881,17.233-12.943"/>
					</g>
				</g>
			</g>
			<g>
				<g>
					<path style="fill:#D35D57;" d="M162.721,437.772c4.828-7.895,4.569-19.176-2.083-25.609c-3.087-2.986-7.397-4.957-9.189-8.86
						c-2.412-5.252,1.098-10.444,0.126-15.702c-0.77-4.164-2.723-8.627-6.452-10.903c-2.636-1.609-5.796-2.145-8.526-3.589
						c-5.021-2.658-6.053-7.202-8.254-11.901c-2.186-4.667-4.49-9.363-9.109-12.087c-4.842-2.856-12.004-2.273-15.071,2.439
						c-3.007,4.619-1.095,10.728,0.954,15.845c2.049,5.117,4.114,11.121,1.328,15.877c-1.742,2.974-5.095,4.793-6.618,7.884
						c-1.906,3.869-0.385,8.586,1.965,12.202c2.943,4.529,8.415,9.165,8.166,15.009c-0.093,2.177-0.722,4.292-1.054,6.445
						c-1.13,7.337,1.436,15.15,6.697,20.388c9.217,9.178,24.648,8.837,35.44,3.139C155.737,445.867,159.931,442.334,162.721,437.772
						z"/>
					<g>
						
							<path style="fill:none;stroke:#0E1823;stroke-width:0.25;stroke-linecap:round;stroke-linejoin:round;stroke-miterlimit:10;" d="
							M144.999,450.83l-0.001-0.004c-7.82-36.317-19.42-70.985-35.194-103.091"/>
						<g>
							<g>
								
									<path style="fill:none;stroke:#0E1823;stroke-width:0.25;stroke-linecap:round;stroke-linejoin:round;stroke-miterlimit:10;" d="
									M122.821,352.056c-2.192,2.793-4.67,5.313-7.424,7.563"/>
								
									<path style="fill:none;stroke:#0E1823;stroke-width:0.25;stroke-linecap:round;stroke-linejoin:round;stroke-miterlimit:10;" d="
									M125.312,355.381c-2.428,3.114-5.103,5.935-8.026,8.477"/>
							</g>
							<g>
								
									<path style="fill:none;stroke:#0E1823;stroke-width:0.25;stroke-linecap:round;stroke-linejoin:round;stroke-miterlimit:10;" d="
									M127.629,389.845c4.705-4.325,8.517-9.529,11.335-15.694"/>
								
									<path style="fill:none;stroke:#0E1823;stroke-width:0.25;stroke-linecap:round;stroke-linejoin:round;stroke-miterlimit:10;" d="
									M129.205,394.284c5.46-5.162,10.002-11.38,13.577-18.737"/>
							</g>
							<g>
								
									<path style="fill:none;stroke:#0E1823;stroke-width:0.25;stroke-linecap:round;stroke-linejoin:round;stroke-miterlimit:10;" d="
									M138.666,424.824c6.153-5.049,10.952-11.427,14.208-19.289"/>
								
									<path style="fill:none;stroke:#0E1823;stroke-width:0.25;stroke-linecap:round;stroke-linejoin:round;stroke-miterlimit:10;" d="
									M139.94,429.594c6.606-5.607,12.001-12.611,16.1-21.137"/>
							</g>
						</g>
						<g>
							<g>
								
									<path style="fill:none;stroke:#0E1823;stroke-width:0.25;stroke-linecap:round;stroke-linejoin:round;stroke-miterlimit:10;" d="
									M105.586,368.606c4.999,2.159,10.116,3.41,15.335,3.828"/>
								
									<path style="fill:none;stroke:#0E1823;stroke-width:0.25;stroke-linecap:round;stroke-linejoin:round;stroke-miterlimit:10;" d="
									M122.723,376.893c-5.205-0.451-10.384-1.58-15.541-3.419"/>
							</g>
							<g>
								
									<path style="fill:none;stroke:#0E1823;stroke-width:0.25;stroke-linecap:round;stroke-linejoin:round;stroke-miterlimit:10;" d="
									M99.219,397.385c10.832,5.883,21.923,7.849,33.201,6.462"/>
								
									<path style="fill:none;stroke:#0E1823;stroke-width:0.25;stroke-linecap:round;stroke-linejoin:round;stroke-miterlimit:10;" d="
									M102.151,403.906c10.662,4.03,21.224,5.468,31.726,4.512"/>
							</g>
							<g>
								
									<path style="fill:none;stroke:#0E1823;stroke-width:0.25;stroke-linecap:round;stroke-linejoin:round;stroke-miterlimit:10;" d="
									M108.701,429.986c10.733,5.685,21.723,7.537,32.892,6.107"/>
								
									<path style="fill:none;stroke:#0E1823;stroke-width:0.25;stroke-linecap:round;stroke-linejoin:round;stroke-miterlimit:10;" d="
									M109.831,435.722c11.056,4.379,22.004,5.963,32.882,4.987"/>
							</g>
						</g>
					</g>
				</g>
				<g>
					<path style="fill:#FFB552;" d="M55.578,430.697c0.85-1.917,2.998-2.907,5.05-3.338c3.824-0.803,7.926-0.206,11.362,1.654
						c-1.862-2.319-1.131-6.235,1.442-7.725c1.954-1.132,4.589-0.644,6.221,0.867c-2.436-3.39-5.152-6.613-6.82-10.428
						c-1.948-4.456-2.111-10.193,1.272-13.686c3.92-4.047,11.066-3.193,15.302,0.521c4.237,3.713,6.13,9.411,7.21,14.941
						c0.119-3.717,0.665-8.144,3.984-9.82c3.214-1.623,7.298,0.607,8.968,3.797c1.671,3.19,1.581,6.977,1.45,10.576
						c0.831-4.413,3.863-8.615,8.191-9.816c4.327-1.201,9.64,1.484,10.384,5.913c0.584,3.474-1.472,6.622-3.927,9.323
						c2.196-1.724,5.08-2.625,7.884-3.086c4.053-0.667,8.54-0.515,11.821,1.955c3.677,2.768,4.937,8.063,3.556,12.453
						c-1.381,4.39-5.038,7.83-9.253,9.679c-4.214,1.848-8.94,2.249-13.533,1.964l-53.809,6.804
						c-7.873-2.829-14.239-9.549-16.638-17.563C55.21,434.052,54.89,432.249,55.578,430.697z"/>
					<g>
						
							<path style="fill:none;stroke:#0E1823;stroke-width:0.25;stroke-linecap:round;stroke-linejoin:round;stroke-miterlimit:10;" d="
							M148.476,426.34c-4.315,1.429-8.541,3.102-12.487,5.348c-6.309,3.574-11.952,8.771-14.827,15.383"/>
						
							<path style="fill:none;stroke:#0E1823;stroke-width:0.25;stroke-linecap:round;stroke-linejoin:round;stroke-miterlimit:10;" d="
							M126.208,409.35c0,0,0,0.007-0.007,0c-2.626,3.183-5.084,6.492-6.974,10.158c-4.497,8.705-5.412,18.69-5.804,28.539"/>
						
							<path style="fill:none;stroke:#0E1823;stroke-width:0.25;stroke-linecap:round;stroke-linejoin:round;stroke-miterlimit:10;" d="
							M103.912,403.223c-1.427,15.263-0.834,30.703,1.75,45.807"/>
						
							<path style="fill:none;stroke:#0E1823;stroke-width:0.25;stroke-linecap:round;stroke-linejoin:round;stroke-miterlimit:10;" d="
							M99.686,449.785c-1.75-6.892-3.968-13.672-6.22-20.422c-2.359-7.098-4.769-14.222-8.244-20.846
							c-2.324-4.43-5.148-8.654-8.587-12.264"/>
						
							<path style="fill:none;stroke:#0E1823;stroke-width:0.25;stroke-linecap:round;stroke-linejoin:round;stroke-miterlimit:10;" d="
							M89.84,451.032c-1.488-6.085-3.248-12.122-6.297-17.579c-2.61-4.664-6.317-8.898-10.86-11.611"/>
						
							<path style="fill:none;stroke:#0E1823;stroke-width:0.25;stroke-linecap:round;stroke-linejoin:round;stroke-miterlimit:10;" d="
							M80.373,452.226c-3.242-4.735-6.703-9.319-10.803-13.33c-3.885-3.795-8.425-7.073-13.406-9.16"/>
					</g>
				</g>
			</g>
		</g>
		<g>
			<path style="fill:#CDD7FF;" d="M446.356,455.253c0,8.661-65.367,17.726-193.575,17.726S53.644,462.332,53.644,453.671
				c0-8.661,68.148-16.806,196.356-16.806S446.356,446.592,446.356,455.253z"/>
			<g>
				<path style="fill:#A9B9ED;" d="M389.301,458.949c0,1.258,3.439,2.279,7.681,2.279c4.242,0,7.682-1.02,7.682-2.279
					c0-1.259-3.439-2.279-7.682-2.279C392.74,456.67,389.301,457.69,389.301,458.949z"/>
				<path style="fill:#A9B9ED;" d="M141.794,445.828c0,1.258,3.439,2.279,7.681,2.279s7.682-1.02,7.682-2.279
					c0-1.259-3.439-2.279-7.682-2.279S141.794,444.569,141.794,445.828z"/>
				<ellipse style="fill:#A9B9ED;" cx="245.727" cy="443.549" rx="7.682" ry="2.279"/>
				<path style="fill:#A9B9ED;" d="M73.649,453.149c0,0.775,2.117,1.402,4.728,1.402s4.728-0.628,4.728-1.402
					c0-0.774-2.117-1.402-4.728-1.402S73.649,452.374,73.649,453.149z"/>
				<ellipse style="fill:#A9B9ED;" cx="372.17" cy="446.255" rx="4.728" ry="1.403"/>
				<path style="fill:#A9B9ED;" d="M333.042,462.48c0,0.775,2.117,1.402,4.728,1.402s4.728-0.628,4.728-1.402
					c0-0.775-2.117-1.402-4.728-1.402S333.042,461.705,333.042,462.48z"/>
				<path style="fill:#A9B9ED;" d="M201.987,464.609c0,0.775,2.117,1.402,4.728,1.402c2.611,0,4.728-0.628,4.728-1.402
					c0-0.775-2.117-1.402-4.728-1.402C204.104,463.206,201.987,463.834,201.987,464.609z"/>
				<path style="fill:#A9B9ED;" d="M259.086,462.48c0,1.95,5.329,3.531,11.904,3.531c6.574,0,11.904-1.581,11.904-3.531
					c0-1.95-5.329-3.531-11.904-3.531C264.415,458.949,259.086,460.53,259.086,462.48z"/>
				<path style="fill:#A9B9ED;" d="M107.206,456.68c0,1.95,5.329,3.531,11.904,3.531c6.574,0,11.904-1.581,11.904-3.531
					c0-1.95-5.329-3.531-11.904-3.531C112.535,453.149,107.206,454.73,107.206,456.68z"/>
			</g>
		</g>
	</g>
	<g>
		<g>
			<path style="fill:#0E1823;" d="M248.79,50.142c-3.744-0.868-8.443,0.833-11.127,2.042c-1.005-0.872-3.662-0.901-5.208-0.399
				c-8.183,2.657-17.964,49.776-15.472,48.622l20.415-8.868l12.863,0.532c0,0,14.17-4.788,15.674-10.343
				S254.358,51.433,248.79,50.142z"/>
			<path style="fill:#3A4193;" d="M190.356,314.037c0,0,50.063,50.697,102.32,6.571l-12.812-136.606l-78.199,1.342L190.356,314.037z
				"/>
			<g>
				<g>
					<g>
						<g>
							<path style="fill:#FF9676;" d="M304.698,371.547l-38.915-0.009c5.747,24.942,11.702,50.658,17.303,76.105l55.63,0.012
								c2.415,0.023,3.142-3.366,0.901-4.186c-13.456-4.921-25.354-8.139-34.396-9.524
								C305.891,413.298,305.72,392.499,304.698,371.547z"/>
						</g>
						<g>
							<path style="fill:#912C2A;" d="M302.818,447.647l19.912,0.005c1.785-2.776,3.812-5.415,6.087-7.875
								c-6.858-2.178-13.138-3.833-18.626-4.94C307.301,438.851,304.835,443.151,302.818,447.647z"/>
							<polygon style="fill:#0E1823;" points="340.72,451.556 282.93,451.543 283.087,447.643 340.876,447.656 							"/>
						</g>
					</g>
					<g>
						<path style="fill:#D35D57;" d="M233.455,159.218c-0.014,77.16,12.666,158.807,25.901,237.945
							c24.18,4.107,44.327,0.389,59.847-12.305c-31.634-88.958-13.184-174.215-60.318-233.134L233.455,159.218z"/>
						
							<path style="fill:none;stroke:#0E1823;stroke-width:0.25;stroke-linecap:round;stroke-linejoin:round;stroke-miterlimit:10;" d="
							M258.282,390.723c23.851,3.395,44.123,0.414,58.412-13.23"/>
					</g>
				</g>
				<g>
					<g>
						<g>
							<path style="fill:#FF9676;" d="M190.674,371.521l38.915,0.009c0.339,24.941,0.758,50.656,1.366,76.101l-54.384-0.025
								c-2.939,0.027-3.568-4.075-0.788-5.151c11.275-4.366,21.481-7.245,29.596-8.532
								C199.67,413.275,194.766,392.474,190.674,371.521z"/>
						</g>
						<g>
							<path style="fill:#912C2A;" d="M199.222,435.121c-5.654,1.274-12.026,3.159-18.872,5.63c2.001,2.171,3.856,4.45,5.455,6.86
								l20.369,0.009C204.439,443.19,202.041,439.016,199.222,435.121z"/>
							<polygon style="fill:#0E1823;" points="230.799,451.531 172.987,451.518 173.143,447.618 230.955,447.631 							"/>
						</g>
					</g>
					<g>
						<path style="fill:#D35D57;" d="M223.06,156.825c-35.134,44.913-41.064,165.387-34.927,240.322
							c16.811,9.191,34.466,8.365,52.758,0.012c-9.445-80.463-0.217-164.324,9.663-240.328L223.06,156.825z"/>
						
							<path style="fill:none;stroke:#0E1823;stroke-width:0.25;stroke-linecap:round;stroke-linejoin:round;stroke-miterlimit:10;" d="
							M187.543,389.248c18.894,8.142,36.531,8.865,52.385-0.939"/>
					</g>
				</g>
			</g>
			<g>
				<path style="fill:#0E1823;" d="M225.086,88.282l-25.764,69.129c29.445,17.048,59.668,14.701,90.67-7.043l-30.795-69.896
					L225.086,88.282z"/>
				<g>
					<path style="fill:#6265CE;" d="M211.113,91.191c-10.306,96.365-34.618,143.675-31.425,212.212
						c9.871,14.253,25.897,19.491,45.703,19.189c-4.599-94.135-8.286-186.474,9.47-236.609L211.113,91.191z"/>
					
						<path style="fill:none;stroke:#0E1823;stroke-width:0.25;stroke-linecap:round;stroke-linejoin:round;stroke-miterlimit:10;" d="
						M179.463,296.81c12.655,15.249,27.344,20.879,45.523,17.447"/>
				</g>
				<g>
					<path style="fill:#6265CE;" d="M248.447,82.863c21.075,86.053,34.055,169.649,22.92,239.751
						c17.615-0.212,30.289-10.119,38.746-28.296c-2.681-70.763-26.817-131.312-41.193-215.805L248.447,82.863z"/>
					<g>
						
							<path style="fill:none;stroke:#0E1823;stroke-width:0.25;stroke-linecap:round;stroke-linejoin:round;stroke-miterlimit:10;" d="
							M309.444,282.213c-9.174,23.157-20.023,33.901-36.817,31.62"/>
						<g>
							
								<path style="fill:none;stroke:#0E1823;stroke-width:0.25;stroke-linecap:round;stroke-linejoin:round;stroke-miterlimit:10;" d="
								M286.331,283.434c-0.07,1.733-1.523,3.138-3.246,3.138c-1.723,0-3.063-1.406-2.994-3.139c0.07-1.733,1.523-3.138,3.246-3.138
								C285.06,280.295,286.401,281.701,286.331,283.434z"/>
							
								<path style="fill:none;stroke:#0E1823;stroke-width:0.25;stroke-linecap:round;stroke-linejoin:round;stroke-miterlimit:10;" d="
								M286.732,242.34c-0.07,1.733-1.523,3.138-3.246,3.138s-3.063-1.406-2.994-3.139c0.07-1.733,1.523-3.138,3.246-3.138
								C285.461,239.201,286.802,240.606,286.732,242.34z"/>
							
								<path style="fill:none;stroke:#0E1823;stroke-width:0.25;stroke-linecap:round;stroke-linejoin:round;stroke-miterlimit:10;" d="
								M282.082,206.459c-0.07,1.733-1.523,3.138-3.246,3.138c-1.723,0-3.063-1.406-2.994-3.139c0.07-1.733,1.523-3.138,3.246-3.138
								C280.811,203.32,282.151,204.725,282.082,206.459z"/>
						</g>
					</g>
				</g>
			</g>
			<g>
				<path style="fill:none;stroke:#0E1823;stroke-width:0.5;stroke-miterlimit:10;" d="M212.779,174.837
					c0,0-19.818,68.269-6.968,67.478c12.85-0.791,15.575-77.462,15.575-77.462"/>
				<path style="fill:none;stroke:#0E1823;stroke-width:0.5;stroke-miterlimit:10;" d="M262.069,175.526
					c0,0-12.909,49.45-4.17,51.568c8.738,2.118,18.217-45.609,9.881-62.231"/>
				<path style="fill:#CDD7FF;" d="M214.612,194.027c0,0-12.821-33.051,25.099-39.637c38.148-6.626,34.146,30.54,34.146,30.54
					C253.332,192.895,233.589,195.896,214.612,194.027z"/>
				<path style="fill:none;stroke:#0E1823;stroke-width:0.25;stroke-miterlimit:10;" d="M217.394,166.088
					c3.291,5.186,10.705,12.249,26.106,9.825c12.903-2.023,18.791-10.106,21.481-17.016"/>
				<path style="fill:#0E1823;" d="M247.205,175.523c-0.083,2.053-1.803,3.716-3.844,3.716c-2.04,0-3.628-1.665-3.545-3.717
					c0.082-2.053,1.803-3.716,3.844-3.716C245.7,171.806,247.288,173.47,247.205,175.523z"/>
			</g>
			<g>
				<path style="fill:#FF9676;" d="M269.814,171.811l-8.313,5.026c0,0-3.671-0.148-5.428-0.205c-2.084-0.069-2.879-0.345-3.153,0.92
					c-0.274,1.264,1.85,1.853,4.022,2.663c0,0-2.359,1.374-5.411,2.799c-2.467,1.151-10.039,3.363-10.348,4.898
					c-0.309,1.535,10.748-1.294,10.748-1.294s-11.751,3.088-11.889,4.444c-0.138,1.355,13.237-1.984,13.237-1.984
					s-12.271,3.533-12.459,5.884c-0.188,2.351,13.609-3.823,13.609-3.823s-10.673,5.482-10.104,7.052
					c0.57,1.57,10.473-4.202,19.339-7.911c8.867-3.709,13.051-5.273,13.051-5.273L269.814,171.811z"/>
				<g>
					<path style="fill:#6265CE;" d="M270.117,78.251l-12.708,2.787l5.928,19.368l17.737,46.958l-20.451,11.877l8.526,34.907
						c69.547-17.374,69.614-38.702,12.904-111.678C279.269,78.89,274.656,77.256,270.117,78.251z"/>
					<path style="fill:#3A4193;" d="M270.331,153.604l-9.708,5.638l8.526,34.907c3.59-0.897,6.983-1.805,10.204-2.729
						L270.331,153.604z"/>
					<g>
						
							<path style="fill:none;stroke:#0E1823;stroke-width:0.25;stroke-linecap:round;stroke-linejoin:round;stroke-miterlimit:10;" d="
							M263.337,100.407l17.737,46.958l-20.451,11.877l8.526,34.907c10.23-2.257,16.287-4.187,23.748-6.818"/>
						<g>
							
								<line style="fill:none;stroke:#0E1823;stroke-width:0.25;stroke-linecap:round;stroke-linejoin:round;stroke-miterlimit:10;" x1="281.074" y1="147.365" x2="287.556" y2="144.113"/>
							
								<path style="fill:none;stroke:#0E1823;stroke-width:0.25;stroke-linecap:round;stroke-linejoin:round;stroke-miterlimit:10;" d="
								M281.4,145.738c0.671-2.225,1.998-4.27,3.767-5.802"/>
						</g>
					</g>
				</g>
				<path style="fill:#FF9676;" d="M214.639,169.468l9.314-2.424c0,0,2.546-2.775,3.773-4.095c1.455-1.565,1.845-2.342,2.88-1.63
					c1.035,0.711-0.105,2.679-1.133,4.842c0,0,2.608-0.725,5.75-1.919c2.538-0.965,6.792-2.891,8.032-2.011
					c1.239,0.881-6.394,4.176-6.394,4.176s7.005-2.686,8.002-1.811c0.997,0.875-6.883,5.282-6.883,5.282s6.464-2.351,7.053-1.297
					c0.702,1.257-6.517,3.617-6.517,3.617s7.023-1.641,7.311-0.721c0.354,1.13-5.69,3.041-14.531,6.817
					c-8.841,3.776-12.889,5.692-12.889,5.692L214.639,169.468z"/>
				<g>
					<path style="fill:#6265CE;" d="M207.064,162.668l12.419-54.339l-0.366-18.894l-6.432,1.411
						c-5.045,1.106-9.376,4.506-11.727,9.174c-54.01,107.229-31.941,124.037,27.794,92.264l-3.707-34.627L207.064,162.668z"/>
					<path style="fill:#3A4193;" d="M225.046,157.658l-8.034,2.188l3.651,36.567c2.595-1.263,5.292-2.64,8.09-4.128L225.046,157.658
						z"/>
					<g>
						
							<path style="fill:none;stroke:#0E1823;stroke-width:0.25;stroke-linecap:round;stroke-linejoin:round;stroke-miterlimit:10;" d="
							M190.871,206.438c12.133-1.555,26.352-8.022,37.881-14.154l-3.707-34.627l-17.982,5.011l5.733-19.847l-0.839-1.456
							c-1.539-2.67-1.828-5.925-0.792-8.928l8.317-24.108"/>
						<g>
							
								<line style="fill:none;stroke:#0E1823;stroke-width:0.25;stroke-linecap:round;stroke-linejoin:round;stroke-miterlimit:10;" x1="207.064" y1="162.668" x2="197.974" y2="165.434"/>
							
								<path style="fill:none;stroke:#0E1823;stroke-width:0.25;stroke-linecap:round;stroke-linejoin:round;stroke-miterlimit:10;" d="
								M205.839,161.824c-0.937-1.653-2.649-2.819-4.543-3.095"/>
						</g>
					</g>
				</g>
			</g>
			<g>
				<g>
					<g>
						<g>
							<path style="fill:#FF9676;" d="M231.31,86.762l0.889-10.384c0,0-6.477,0.159-7.191-1.175c-1.558-2.909,8.63-20.76,8.63-20.76
								l11.874,0.003l6.292,27.678L231.31,86.762z"/>
							<g>
								<path style="fill:#0E1823;" d="M237.861,59.885c-0.009,0.232-0.204,0.42-0.435,0.42c-0.231,0-0.41-0.188-0.401-0.421
									c0.009-0.232,0.204-0.42,0.435-0.42C237.691,59.465,237.87,59.653,237.861,59.885z"/>
								<path style="fill:#0E1823;" d="M232.455,59.884c-0.009,0.232-0.204,0.42-0.435,0.42c-0.231,0-0.41-0.188-0.401-0.42
									c0.009-0.232,0.204-0.42,0.435-0.42C232.285,59.464,232.464,59.652,232.455,59.884z"/>
								
									<path style="fill:none;stroke:#0E1823;stroke-width:0.25;stroke-linecap:round;stroke-linejoin:round;stroke-miterlimit:10;" d="
									M233.927,59.983c-0.599,0.702-1.269,1.345-1.995,1.913c0.382,0.23,0.764,0.46,1.146,0.69
									c-0.437,0.295-0.874,0.591-1.311,0.886c1.265,0.615,3.261,0.923,4.914-0.251"/>
							</g>
						</g>
						<path style="fill:#0E1823;" d="M249.561,54.21l-17.026-0.004l-2.144,4.348c2.763,0.222,4.974-1.91,6.214-3.481
							c0.725,1.123,2.385,2.928,4.634,4.522c-2.308,5.617-6.712,17.917-0.333,25.04l12.436-2.811L249.561,54.21z"/>
					</g>
				</g>
			</g>
		</g>
		<path style="fill:#0E1823;" d="M240.148,83.696c0,0,7.947,7.726,18.602-3.171L240.148,83.696z"/>
	</g>
</g>
</svg>
